<?xml version="1.0" standalone="no"?>
<!DOCTYPE svg PUBLIC "-//W3C//DTD SVG 20010904//EN"
 "http://www.w3.org/TR/2001/REC-SVG-20010904/DTD/svg10.dtd">
<svg version="1.0" xmlns="http://www.w3.org/2000/svg"
 width="470.000000pt" height="470.000000pt" viewBox="0 0 470.000000 470.000000"
 preserveAspectRatio="xMidYMid meet">
<metadata>
Created by potrace 1.11, written by Peter Selinger 2001-2013
</metadata>
<g transform="translate(0.000000,470.000000) scale(0.100000,-0.100000)"
fill="#000000" stroke="none">
<path d="M3387 3114 c-1 -1 -27 -4 -57 -8 -100 -12 -134 -18 -193 -37 -33 -10
-64 -19 -69 -19 -18 0 -238 -112 -238 -121 0 -5 -7 -9 -15 -9 -8 0 -15 -4 -15
-10 0 -5 -4 -10 -10 -10 -9 0 -34 -21 -116 -97 -19 -17 -34 -36 -34 -42 0 -6
-4 -11 -8 -11 -13 0 -88 -122 -110 -180 -43 -115 -50 -140 -41 -140 6 0 7 -4
4 -10 -3 -5 -8 -19 -10 -30 -3 -15 2 -20 16 -20 11 0 18 -4 15 -8 -2 -4 -1
-14 4 -22 5 -8 4 -23 -1 -34 -10 -20 -10 -20 5 -2 9 10 13 22 11 27 -3 4 0 11
6 15 7 4 9 3 6 -3 -11 -18 18 -36 32 -20 6 8 7 18 3 22 -4 5 -1 5 6 1 6 -4 18
-4 25 1 21 13 36 12 30 -3 -5 -13 -17 -18 -37 -15 -5 1 -17 -6 -27 -15 -11 -9
-19 -13 -19 -9 0 4 -8 -2 -19 -13 -10 -12 -22 -22 -27 -22 -15 -1 -79 -92 -96
-135 -8 -22 -15 -52 -14 -67 1 -19 -3 -28 -14 -29 -10 0 -9 -3 5 -9 11 -5 14
-9 6 -9 -11 -1 -11 -4 -1 -16 7 -8 9 -15 5 -15 -4 0 -1 -8 6 -17 10 -11 10
-14 2 -9 -7 4 -13 2 -13 -3 0 -6 6 -11 13 -11 6 0 21 -13 32 -29 10 -16 23
-27 27 -25 4 3 8 1 8 -5 0 -5 -4 -13 -10 -16 -5 -3 -10 -2 -10 2 0 5 -6 17
-13 27 -12 16 -13 16 -13 -3 0 -11 5 -17 10 -14 5 4 7 -1 3 -11 -4 -9 -3 -15
2 -11 5 3 12 -1 14 -7 4 -10 6 -10 6 0 1 6 6 12 12 12 5 0 7 -4 4 -10 -3 -5
-1 -10 4 -10 6 0 11 8 12 18 0 11 2 12 6 4 3 -7 -1 -20 -8 -28 -10 -12 -10
-15 2 -12 8 2 13 -2 12 -8 -1 -6 5 -11 13 -11 10 0 11 4 4 11 -14 14 -13 31 3
18 6 -5 24 -8 39 -7 16 2 32 -3 40 -13 11 -13 11 -15 -2 -7 -9 5 -8 0 4 -13
11 -12 24 -22 30 -21 6 0 6 3 -2 6 -6 2 -10 9 -6 14 3 5 11 6 17 2 7 -4 21 -9
32 -10 16 -2 17 -1 5 6 -8 5 -18 7 -24 4 -5 -3 -6 -1 -2 5 4 7 -1 9 -15 7 -12
-2 -19 -2 -16 2 4 3 -1 13 -11 21 -11 9 -8 9 11 -2 15 -9 27 -12 27 -6 0 5 5
10 11 10 5 0 7 -5 4 -10 -6 -10 9 -19 40 -24 9 -1 21 -9 25 -17 7 -10 9 -8 7
8 0 12 -5 19 -9 17 -4 -3 -8 0 -8 6 0 7 6 10 14 7 7 -3 19 0 25 6 6 6 11 7 11
2 0 -6 5 -3 11 5 8 12 9 10 4 -7 -3 -12 -1 -24 5 -28 6 -4 10 -3 9 2 -4 20 2
34 11 28 13 -8 42 14 34 26 -3 5 0 9 5 9 6 0 11 -4 11 -10 0 -5 8 -7 18 -4 14
5 15 4 2 -5 -13 -9 -13 -12 -1 -23 9 -8 11 -9 7 -1 -3 6 -2 14 4 18 16 10 12
35 -5 29 -8 -4 -15 -1 -15 6 0 6 5 8 10 5 10 -6 15 9 10 30 -1 5 2 6 7 2 4 -5
8 -16 8 -25 0 -9 9 -18 20 -19 20 -3 20 -3 0 5 -18 8 -18 10 7 35 19 19 23 28
14 38 -8 8 -8 10 0 6 6 -4 19 2 28 12 14 15 14 20 4 25 -9 4 -9 5 2 4 26 -3
64 13 51 22 -9 5 -8 11 4 24 12 12 13 16 3 16 -11 0 -11 2 0 9 11 7 11 9 -2
14 -15 6 -16 53 0 78 4 8 3 9 -5 5 -8 -5 -10 0 -7 18 3 14 0 26 -5 26 -6 0 -8
4 -4 9 9 15 -54 80 -93 97 -57 23 -136 31 -233 21 -44 -4 -46 -3 -43 20 1 16
-2 23 -10 20 -6 -3 -12 3 -12 13 0 10 3 18 6 18 17 -1 21 4 11 16 -8 10 -9 16
-1 21 6 3 7 11 4 17 -4 7 -2 8 4 4 7 -4 12 -1 12 6 1 8 7 5 16 -7 16 -20 16
-19 9 4 -5 16 -4 21 4 17 7 -5 9 -1 5 8 -3 9 -2 16 4 16 15 0 23 28 10 36 -7
5 -8 2 -3 -6 6 -9 4 -11 -5 -5 -7 5 -11 4 -7 -1 3 -5 -1 -17 -8 -27 -12 -17
-13 -16 -18 2 -3 15 -1 18 11 14 9 -4 13 -2 9 4 -4 6 0 16 8 23 8 7 12 17 8
23 -3 6 -1 7 6 3 6 -4 9 -12 6 -17 -4 -5 -2 -9 4 -9 5 0 9 9 8 20 -1 11 -5 20
-9 20 -4 0 -8 5 -8 10 0 6 8 5 19 -2 11 -7 17 -16 14 -22 -4 -5 -1 -6 6 -2 9
6 8 13 -6 28 -16 18 -16 20 -1 29 10 6 15 17 12 27 -5 14 -4 14 4 3 12 -17 40
-23 48 -10 3 5 9 7 13 5 4 -3 8 1 8 9 0 8 -4 12 -9 9 -4 -3 -8 0 -8 7 0 6 -8
1 -18 -11 -14 -18 -19 -19 -19 -7 0 9 4 14 8 12 4 -3 10 2 13 11 3 8 10 12 16
9 9 -6 14 8 11 28 0 4 2 6 6 6 21 -3 24 3 12 19 -11 14 -10 13 9 -2 23 -20 30
-32 10 -20 -7 4 -8 3 -4 -4 9 -15 12 -15 30 4 12 12 13 20 6 35 -13 23 -7 24
15 2 14 -14 18 -14 26 -2 5 8 9 19 9 24 0 6 -4 3 -10 -5 -5 -8 -12 -11 -17 -6
-4 4 0 12 10 18 15 8 16 12 5 26 -7 9 0 6 16 -6 31 -24 46 -28 46 -11 0 5 -4
8 -9 4 -10 -6 -24 11 -27 32 -1 7 3 16 8 20 6 3 9 2 6 -3 -6 -12 30 -46 37
-34 3 5 1 11 -4 15 -5 3 -9 14 -8 25 1 10 5 17 9 14 4 -3 5 -11 1 -19 -4 -11
-1 -13 10 -9 9 3 15 11 13 17 -1 7 -1 9 1 4 3 -4 9 -5 14 -1 5 3 9 1 9 -5 0
-5 -9 -12 -19 -16 -19 -6 -22 -27 -7 -42 4 -4 7 -3 6 2 -4 20 0 35 10 35 5 0
7 -8 3 -17 -3 -10 -3 -15 1 -12 4 4 9 17 11 29 7 36 27 43 48 18 18 -21 19
-21 15 -3 -2 13 2 19 10 17 8 -1 11 2 7 8 -5 8 -11 7 -21 -1 -10 -8 -14 -8
-14 0 0 6 5 11 11 11 5 0 8 4 5 8 -3 5 1 9 9 9 8 0 12 -3 10 -7 -2 -4 7 -12
20 -18 19 -9 23 -8 19 2 -3 8 0 17 5 21 6 3 8 11 5 17 -5 7 -2 8 6 3 10 -6 12
-3 7 11 -7 18 -6 18 6 2 8 -10 17 -16 21 -13 3 3 2 -1 -4 -7 -13 -16 -13 -28
1 -28 5 0 7 5 3 12 -5 7 0 9 14 6 19 -5 20 -3 12 13 -9 15 -8 17 7 12 16 -6
16 -5 4 10 -12 15 -12 17 3 11 11 -4 15 -13 11 -25 -4 -11 -2 -19 5 -19 6 0 8
-5 4 -12 -4 -6 -3 -8 4 -5 5 4 7 17 4 29 -5 22 -5 22 22 5 27 -18 27 -18 16 2
-7 14 -7 21 0 21 5 0 10 -6 10 -12 1 -7 7 -2 14 11 11 20 14 21 19 6 10 -24 8
-32 -3 -15 -5 8 -10 11 -10 5 0 -5 4 -16 9 -23 7 -11 9 -11 14 2 4 9 13 13 22
10 8 -3 15 -1 15 6 0 6 -4 9 -9 6 -5 -3 -14 0 -20 8 -9 10 -3 13 29 12 22 -1
40 3 40 9 0 5 5 2 11 -8 9 -15 13 -16 27 -5 12 10 14 10 8 1 -4 -8 -1 -13 9
-13 10 0 13 5 9 12 -4 7 -3 8 4 4 7 -4 12 -2 12 5 0 18 11 4 14 -18 2 -10 11
-18 22 -18 10 -1 18 -6 17 -11 -2 -12 55 -12 75 0 15 9 32 -1 28 -17 -1 -7 -1
-9 1 -4 8 12 25 8 40 -10 13 -16 13 -16 4 4 -8 16 -7 22 5 27 8 3 13 2 9 -3
-3 -5 8 -12 25 -16 17 -4 28 -11 24 -16 -3 -5 -9 -7 -14 -4 -5 3 -11 1 -14 -4
-8 -12 13 -9 38 6 19 10 19 11 0 21 -10 5 -23 10 -29 9 -5 0 -10 6 -11 14 0 8
1 9 3 2 2 -6 15 -9 29 -7 16 3 23 0 22 -8 -2 -7 5 -12 14 -12 10 1 15 -3 12
-8 -4 -6 -1 -8 7 -6 8 3 12 12 11 19 -2 8 0 10 5 6 4 -5 8 -14 8 -20 1 -7 7
-11 14 -9 7 1 10 -2 5 -9 -5 -9 -2 -10 9 -6 12 4 21 -2 32 -22 8 -16 12 -31
10 -35 -3 -3 -2 -4 1 -1 4 2 16 0 27 -6 14 -8 18 -8 13 0 -4 6 0 11 9 11 10 0
13 5 9 12 -5 7 -3 8 5 3 9 -5 10 -10 2 -18 -13 -13 -15 -30 -2 -23 5 3 14 -1
21 -9 15 -18 40 -20 40 -2 0 6 5 4 11 -6 6 -9 14 -15 20 -12 5 4 18 -10 30
-29 12 -20 25 -33 30 -30 5 3 8 0 7 -8 -2 -7 3 -12 10 -10 8 1 11 -2 8 -7 -3
-5 1 -12 9 -15 12 -4 13 -10 5 -25 -14 -28 -12 -38 3 -16 9 11 16 14 21 7 3
-6 2 -13 -4 -17 -5 -3 -10 -12 -10 -18 0 -8 3 -7 9 2 5 7 14 10 20 7 6 -4 9
-11 6 -16 -3 -4 2 -13 10 -20 8 -7 13 -16 10 -20 -3 -5 -1 -11 5 -15 5 -3 10
-15 10 -25 0 -10 6 -21 13 -23 8 -4 7 -6 -3 -6 -11 -1 -12 -3 -3 -9 7 -4 14
-17 16 -27 1 -11 6 -26 10 -32 5 -7 5 -13 0 -13 -4 0 -9 -12 -10 -27 0 -15 2
-21 7 -14 5 9 9 6 13 -8 3 -12 1 -21 -5 -21 -5 0 -6 -4 -3 -10 7 -11 -8 -14
-19 -3 -7 7 -36 11 -110 16 -51 4 -144 -9 -182 -24 -16 -7 -32 -13 -35 -13 -3
-1 -26 -14 -51 -29 -92 -59 -154 -202 -123 -282 8 -20 8 -20 -16 0 -21 17 -21
16 3 -10 18 -20 26 -39 24 -57 -2 -15 1 -25 6 -22 5 3 7 12 4 20 -3 8 -1 14 3
14 11 0 21 -25 22 -58 l1 -27 8 25 c6 18 8 20 9 7 1 -12 6 -16 14 -11 10 6 10
4 0 -7 -7 -7 -13 -17 -13 -23 0 -5 9 1 20 14 11 13 20 18 20 11 0 -7 5 -9 13
-5 6 4 9 4 5 -1 -11 -12 11 -35 28 -28 8 3 14 0 14 -7 0 -6 -4 -9 -8 -6 -4 2
-14 0 -22 -6 -12 -8 -12 -9 2 -4 10 3 22 -2 27 -12 7 -11 11 -12 11 -4 0 7 4
11 9 8 13 -8 34 21 25 35 -5 8 -3 9 5 5 7 -5 10 -14 7 -21 -2 -7 2 -16 11 -19
10 -4 14 -2 10 8 -4 11 -1 13 10 9 12 -5 14 -3 8 8 -5 8 1 5 13 -5 26 -23 28
-36 6 -36 -10 0 -14 5 -10 16 3 9 2 12 -5 8 -6 -3 -9 -15 -6 -25 6 -23 -1 -24
-25 -2 -13 12 -22 13 -29 6 -8 -8 -6 -11 6 -10 10 1 20 -3 22 -10 3 -7 -7 -10
-26 -9 -16 1 -28 -1 -25 -5 6 -10 -84 -39 -101 -32 -8 3 -15 8 -15 12 0 8 -35
11 -140 13 -69 1 -93 -3 -126 -20 -61 -31 -69 -60 -29 -106 14 -16 25 -26 25
-22 0 4 14 -2 30 -14 17 -12 28 -26 24 -31 -3 -6 6 -8 21 -5 16 3 33 -1 41 -9
12 -12 11 -14 -5 -12 -11 0 -18 4 -16 7 2 4 -2 7 -8 7 -7 0 -14 -10 -15 -21 0
-11 2 -16 6 -10 4 6 16 10 26 8 11 -1 29 2 40 9 27 14 48 18 40 6 -3 -5 -10
-6 -16 -3 -7 5 -8 2 -4 -5 5 -7 14 -10 22 -7 7 3 16 1 20 -5 4 -6 11 -5 21 3
21 17 56 21 48 6 -4 -7 2 -3 13 10 11 12 25 22 32 22 6 0 8 5 4 12 -5 8 -13 4
-26 -11 -10 -13 -18 -18 -18 -11 0 9 -4 9 -17 -1 -15 -13 -15 -12 -3 8 8 12
20 19 28 15 10 -3 13 -1 8 7 -4 6 -4 11 1 10 31 -5 42 14 18 34 -6 5 -3 7 8 3
18 -6 24 9 7 19 -14 9 15 36 40 38 11 1 20 5 20 9 0 4 9 8 19 8 11 0 23 5 26
10 4 6 10 8 15 5 5 -3 12 0 15 6 4 5 13 8 21 5 8 -3 17 1 20 8 3 8 13 13 22
11 9 -2 20 -4 23 -4 3 -1 5 -19 3 -41 -2 -22 1 -40 6 -40 5 0 7 11 4 26 -4 23
-3 24 17 14 17 -10 20 -9 14 1 -6 9 -3 11 9 6 10 -4 15 -3 11 3 -3 5 3 15 14
22 15 9 17 15 9 25 -12 15 3 18 18 3 7 -7 15 -3 24 14 13 25 40 43 40 27 0 -5
-6 -12 -12 -14 -10 -4 -10 -6 -1 -6 17 -1 27 19 15 31 -7 7 -18 3 -35 -16 -30
-32 -42 -34 -26 -3 l11 22 -21 -22 c-26 -27 -31 -28 -31 -6 0 9 3 13 7 10 3
-4 13 -1 22 7 16 15 19 16 48 16 9 0 14 3 11 6 -4 3 1 14 10 23 16 16 19 17
36 2 19 -16 19 -15 1 12 -14 22 -15 26 -2 21 8 -3 18 0 23 7 5 8 3 10 -7 4
-11 -6 -11 -5 -2 5 14 15 6 43 -10 33 -6 -4 -7 -1 -3 6 6 9 12 8 26 -4 18 -16
18 -16 13 4 -3 12 -9 21 -14 21 -5 0 -9 5 -9 10 0 15 39 -12 43 -30 2 -8 3 4
3 27 0 23 -5 39 -9 36 -5 -3 -1 6 8 21 17 25 25 29 55 27 10 0 11 1 3 5 -19 8
-16 24 5 25 15 0 14 1 -3 8 -19 8 -19 8 0 19 11 6 14 12 8 12 -15 0 -13 21 2
33 6 5 4 7 -5 4 -8 -2 -14 -10 -13 -16 2 -6 -2 -11 -7 -11 -13 0 -13 17 0 25
5 3 10 16 10 28 0 57 6 67 27 46 8 -8 13 -8 18 0 4 7 1 10 -7 9 -8 -2 -12 5
-11 17 1 10 -6 33 -14 50 l-16 30 23 -20 23 -20 -16 26 c-10 14 -14 29 -10 32
3 4 2 7 -3 7 -5 0 -9 15 -9 34 0 19 3 32 7 30 3 -2 10 1 14 7 4 8 3 9 -5 5 -6
-4 -13 0 -17 11 -3 10 -9 25 -14 34 -4 8 -3 23 2 34 8 13 7 16 -1 11 -10 -6
-15 6 -12 27 0 4 -3 7 -8 7 -5 0 -11 8 -14 18 -2 9 -8 26 -13 36 -5 15 -4 17
6 11 9 -6 11 -4 6 4 -5 7 -10 10 -13 7 -3 -3 -27 27 -53 67 -26 40 -69 93 -96
120 -58 56 -164 137 -181 137 -6 0 -13 3 -15 8 -10 22 -238 115 -313 126 -22
4 -49 9 -59 12 -11 4 -36 8 -55 10 -35 4 -251 10 -254 8z m103 -129 c0 -8 -2
-15 -4 -15 -2 0 -6 7 -10 15 -3 8 -1 15 4 15 6 0 10 -7 10 -15z m-144 -14 c1
-6 0 -7 -2 -2 -3 6 -12 7 -20 4 -8 -3 -14 -1 -14 5 0 14 33 8 36 -7z m244 15
c0 -2 -7 -7 -16 -10 -8 -3 -12 -2 -9 4 6 10 25 14 25 6z m74 -14 c2 -4 -4 -8
-14 -8 -10 0 -16 4 -14 8 3 4 9 8 14 8 5 0 11 -4 14 -8z m41 -12 c-5 -24 14
-38 26 -19 6 9 9 10 9 2 0 -16 -15 -24 -34 -17 -9 4 -14 14 -12 27 6 28 5 27
10 27 3 0 3 -9 1 -20z m-65 -14 c35 1 39 -1 28 -13 -8 -10 -13 -12 -16 -4 -3
9 -8 9 -18 0 -11 -9 -18 -8 -32 5 -10 9 -22 13 -25 9 -4 -3 -7 -2 -7 4 0 17
14 24 21 10 5 -8 23 -12 49 -11z m-546 -24 c3 -5 -1 -9 -9 -9 -8 0 -12 4 -9 9
3 4 7 8 9 8 2 0 6 -4 9 -8z m76 1 c0 -5 -5 -15 -10 -23 -7 -12 -9 -10 -7 8 1
19 17 33 17 15z m816 -65 c4 -7 3 -8 -4 -4 -7 4 -12 1 -12 -9 0 -12 5 -15 18
-10 14 5 15 4 5 -6 -17 -17 -38 3 -30 25 8 19 13 20 23 4z m-1081 -47 c3 -5 2
-12 -3 -15 -5 -3 -9 1 -9 9 0 17 3 19 12 6z m1145 -13 c0 -9 4 -8 10 2 6 9 10
10 10 3 0 -19 -17 -24 -30 -8 -9 10 -9 15 -1 15 6 0 11 -6 11 -12z m-1185 -17
c-3 -5 2 -16 10 -25 8 -8 11 -17 7 -20 -11 -6 -33 39 -25 48 10 9 15 7 8 -3z
m-178 -213 c-3 -8 -6 -5 -6 6 -1 11 2 17 5 13 3 -3 4 -12 1 -19z m1797 -318
c-6 -6 -10 -3 -10 10 0 13 4 16 10 10 7 -7 7 -13 0 -20z m-314 -41 c0 -6 -4
-7 -10 -4 -5 3 -10 11 -10 16 0 6 5 7 10 4 6 -3 10 -11 10 -16z m-1443 -19 c1
-11 -2 -20 -7 -20 -6 0 -7 17 -1 38 3 8 7 -1 8 -18z m83 0 c7 11 10 11 10 2 0
-7 5 -10 12 -6 7 5 8 3 3 -6 -5 -8 -9 -30 -10 -49 -3 -86 -61 -149 -144 -157
-22 -2 -43 1 -46 6 -4 6 -10 8 -14 5 -11 -6 -46 33 -38 42 4 3 1 13 -5 22 -7
9 -8 13 -4 9 5 -4 15 -3 23 3 10 9 13 8 13 -4 0 -9 3 -18 8 -20 4 -3 7 5 7 18
0 13 -2 22 -5 20 -3 -2 -12 4 -20 13 -13 14 -12 15 2 10 10 -4 19 -1 22 9 4
11 2 14 -9 10 -8 -4 -17 -2 -20 4 -4 5 -3 9 2 8 22 -4 33 3 33 19 0 14 2 15
10 2 6 -9 5 -17 -3 -22 -9 -6 -8 -8 3 -8 13 0 13 -1 0 -10 -8 -5 -11 -12 -7
-16 8 -9 18 -1 21 18 1 7 5 19 9 26 5 7 5 22 2 35 -5 18 -3 17 13 -6 12 -18
22 -25 26 -18 4 6 2 11 -3 11 -6 0 -11 8 -11 18 1 16 1 16 11 -1 7 -12 17 -16
31 -11 15 4 18 3 13 -6 -5 -9 -4 -11 4 -6 6 4 9 12 6 17 -4 5 1 9 9 9 9 0 16
4 16 9 0 5 -10 7 -22 5 -21 -4 -22 -4 -3 5 15 7 23 5 33 -7 11 -15 14 -15 22
-2z m1323 -2 c-4 -19 -3 -20 6 -8 9 13 11 13 11 1 0 -12 3 -12 12 -3 17 17 28
15 28 -5 0 -14 -2 -15 -9 -5 -6 11 -10 10 -15 -4 -3 -9 -4 -19 -1 -22 3 -3 5
0 5 5 0 15 29 10 42 -8 8 -11 9 -11 5 3 -3 9 0 19 7 21 9 4 12 -6 11 -36 -3
-51 -14 -87 -27 -87 -5 0 -7 -4 -4 -8 5 -9 -58 -54 -83 -60 -59 -12 -105 -1
-122 29 -9 18 -3 24 23 20 8 -1 4 26 -6 36 -4 4 -6 2 -4 -6 2 -7 -5 -15 -15
-16 -17 -3 -17 -2 -3 14 13 14 13 20 3 31 -6 7 4 3 23 -10 l35 -23 -30 33 -30
33 35 -23 35 -24 -22 25 c-13 14 -23 29 -23 35 0 5 4 3 9 -5 15 -23 42 -5 37
24 -5 29 13 30 31 0 15 -24 17 -2 3 25 -7 13 -7 21 2 26 6 4 8 3 4 -4 -3 -6 0
-17 8 -25 8 -8 13 -17 10 -20 -3 -3 0 -8 7 -13 8 -4 10 -3 5 4 -4 7 -2 12 3
12 6 0 11 5 11 11 0 5 -4 8 -9 4 -13 -7 -24 13 -17 30 8 23 15 18 9 -7z m86
-14 c-14 -13 -16 -13 -16 0 0 8 4 13 9 10 4 -3 8 0 8 7 0 7 3 9 7 5 4 -3 0
-13 -8 -22z m-166 -34 c3 -11 1 -18 -4 -14 -5 3 -9 12 -9 20 0 20 7 17 13 -6z
m409 -44 c-6 -10 -8 -15 -11 -34 0 -5 -8 -9 -17 -9 -15 0 -15 2 0 13 11 8 13
14 6 19 -13 8 -5 22 14 22 8 0 12 -5 8 -11z m-1435 -33 c0 -7 -4 -13 -9 -13
-5 0 -6 -6 -2 -12 5 -9 2 -9 -9 1 -19 15 -23 26 -5 15 7 -5 9 -2 6 8 -4 8 -1
15 6 15 7 0 13 -6 13 -14z m1374 -46 c-10 -9 -11 -8 -5 6 3 10 9 15 12 12 3
-3 0 -11 -7 -18z m-1381 -3 c0 -2 -7 -4 -15 -4 -8 0 -15 4 -15 10 0 5 7 7 15
4 8 -4 15 -8 15 -10z m-471 -150 c5 4 12 3 15 -2 10 -16 -33 -10 -46 6 -12 15
-11 16 4 4 9 -8 22 -11 27 -8z m176 -4 c3 -5 1 -10 -4 -10 -6 0 -11 5 -11 10
0 6 2 10 4 10 3 0 8 -4 11 -10z m41 -2 c4 -7 3 -8 -4 -4 -7 4 -12 2 -12 -5 0
-7 -3 -10 -6 -6 -6 5 3 27 11 27 2 0 7 -5 11 -12z m64 0 c0 -4 -4 -8 -9 -8 -6
0 -12 4 -15 8 -3 5 1 9 9 9 8 0 15 -4 15 -9z m1376 -5 c-3 -20 -22 -28 -31
-14 -4 7 0 8 10 5 9 -4 15 -3 14 2 -2 13 0 24 5 24 2 0 3 -8 2 -17z m-1513
-18 c-3 -9 -8 -14 -10 -11 -3 3 -2 9 2 15 9 16 15 13 8 -4z m1440 -15 c3 -11
1 -18 -4 -14 -5 3 -9 -1 -9 -8 0 -9 -3 -9 -10 2 -5 8 -10 20 -10 25 0 6 5 3
10 -5 8 -13 10 -12 10 3 0 23 6 22 13 -3z m-135 -5 c-2 -5 -8 -10 -15 -11 -6
-1 -9 4 -6 12 6 16 27 15 21 -1z m165 -2 c-3 -7 -6 -13 -8 -13 -2 0 -5 6 -8
13 -3 8 1 14 8 14 7 0 11 -6 8 -14z m35 -104 c-18 -12 -34 -5 -30 15 2 9 -3
16 -9 16 -7 0 -4 6 7 14 17 13 20 12 32 -11 12 -21 12 -27 0 -34z m28 24 c-4
-4 -11 -1 -16 7 -16 25 -11 35 7 17 9 -9 13 -20 9 -24z m-321 -133 c3 -5 1
-10 -4 -10 -6 0 -11 5 -11 10 0 6 2 10 4 10 3 0 8 -4 11 -10z m-97 -52 c9 -9
12 -9 12 3 0 12 2 12 10 -1 5 -9 5 -19 -2 -27 -11 -14 -32 -7 -23 7 3 5 -3 13
-12 19 -10 6 -13 11 -7 11 5 0 15 -5 22 -12z m-58 -8 c0 -5 -2 -10 -4 -10 -3
0 -8 5 -11 10 -3 6 -1 10 4 10 6 0 11 -4 11 -10z"/>
<path d="M2773 2167 c-3 -4 -2 -11 1 -14 3 -4 6 -1 6 6 0 7 8 3 18 -9 l18 -22
0 24 c0 17 -6 24 -19 24 -10 0 -21 -4 -24 -9z"/>
<path d="M2590 2021 c0 -6 4 -12 8 -15 5 -3 9 1 9 9 0 8 -4 15 -9 15 -4 0 -8
-4 -8 -9z"/>
<path d="M4075 2140 c3 -5 8 -10 11 -10 2 0 4 5 4 10 0 6 -5 10 -11 10 -5 0
-7 -4 -4 -10z"/>
<path d="M4010 1999 c0 -5 5 -7 10 -4 6 3 10 8 10 11 0 2 -4 4 -10 4 -5 0 -10
-5 -10 -11z"/>
<path d="M3425 2950 c3 -6 10 -8 15 -5 5 3 11 1 15 -5 9 -14 28 -13 23 2 -2 6
-17 13 -32 15 -18 3 -25 0 -21 -7z"/>
<path d="M3528 2946 c-19 -14 -23 -26 -10 -26 4 0 13 9 20 20 14 23 13 24 -10
6z"/>
<path d="M867 2917 c-10 -10 -15 -22 -12 -27 4 -6 1 -10 -6 -10 -8 0 -8 -4 2
-16 7 -8 21 -13 31 -11 10 3 21 1 24 -4 3 -5 10 -9 15 -9 6 0 8 4 5 8 -2 4 4
8 15 8 18 0 19 -2 4 -12 -9 -7 -12 -15 -6 -18 5 -4 16 3 24 15 10 13 17 17 22
10 3 -6 12 -8 18 -4 7 3 3 -3 -7 -15 -11 -12 -15 -22 -10 -22 5 0 2 -5 -6 -10
-8 -5 -10 -10 -3 -10 8 0 7 -16 -4 -57 -8 -32 -17 -65 -19 -73 -2 -8 -10 -40
-19 -70 -26 -92 -27 -89 7 -98 31 -8 46 -36 26 -49 -7 -3 -8 -1 -4 5 4 7 1 12
-6 12 -9 0 -9 3 2 10 12 7 10 9 -8 7 -14 -1 -18 -5 -12 -11 14 -14 13 -29 -2
-20 -7 4 -8 3 -4 -5 4 -6 12 -9 17 -6 5 4 9 0 9 -7 0 -10 2 -10 9 0 4 8 12 14
17 14 5 -1 8 6 6 13 -1 8 8 19 20 25 22 11 22 10 4 -4 -11 -9 -17 -18 -14 -22
10 -9 49 20 44 33 -3 6 1 17 9 23 8 6 11 18 8 26 -3 8 0 14 7 14 6 0 8 -4 5
-10 -3 -5 -1 -10 4 -10 6 0 11 7 11 16 0 8 4 13 8 10 4 -2 9 4 9 15 1 10 -2
19 -8 19 -5 0 -8 -5 -6 -11 1 -6 -4 -13 -11 -15 -7 -1 -8 0 -2 3 7 3 7 10 -2
21 -11 13 -11 14 1 7 11 -6 13 -4 8 9 -6 14 -3 15 14 5 11 -6 23 -8 27 -5 3 3
0 6 -5 6 -6 0 -10 8 -8 18 1 9 7 16 13 15 5 -1 9 5 8 15 0 9 5 16 12 14 8 -1
11 2 7 8 -5 8 -11 8 -20 0 -22 -18 -37 -3 -23 23 12 22 14 28 17 47 0 6 6 10
12 10 8 0 7 -6 -2 -17 -13 -15 -12 -15 8 -3 20 13 20 15 5 26 -9 7 -21 10 -27
6 -5 -3 -4 1 2 10 7 8 9 19 5 23 -4 5 -1 5 6 1 7 -4 10 -11 7 -16 -3 -5 -1
-11 4 -14 14 -9 23 26 9 36 -8 6 -4 7 12 2 22 -6 23 -5 12 9 -8 9 -20 13 -28
10 -8 -3 -14 1 -14 8 0 7 3 9 7 6 3 -4 13 -1 21 6 13 10 14 9 8 -2 -7 -10 -3
-12 13 -6 13 4 21 2 21 -5 0 -6 5 -8 10 -5 6 4 7 11 4 17 -5 7 -2 8 7 2 23
-14 43 -11 70 14 17 15 25 30 22 43 -3 10 -8 19 -12 20 -3 0 -100 1 -216 2
-190 2 -212 0 -228 -16z m243 -272 c-5 -6 -6 -16 -2 -21 4 -4 -1 -2 -10 5 -20
15 -24 26 -6 15 7 -5 9 -2 5 9 -4 11 -2 14 9 10 10 -4 12 -9 4 -18z"/>
<path d="M3435 2920 c3 -5 8 -10 11 -10 2 0 4 5 4 10 0 6 -5 10 -11 10 -5 0
-7 -4 -4 -10z"/>
<path d="M3191 2906 c-9 -11 -9 -16 1 -22 7 -4 10 -4 6 1 -4 4 -3 14 3 22 6 7
9 13 6 13 -2 0 -10 -6 -16 -14z"/>
<path d="M3826 2882 c-3 -5 1 -9 9 -9 8 0 15 4 15 9 0 4 -4 8 -9 8 -6 0 -12
-4 -15 -8z"/>
<path d="M3865 2880 c-4 -6 -4 -14 -1 -17 3 -4 6 -1 6 6 0 7 5 9 10 6 8 -5 7
-11 -1 -21 -10 -12 -9 -13 5 -8 20 8 20 18 2 33 -10 9 -16 9 -21 1z"/>
<path d="M1302 2858 c-7 -7 -12 -15 -12 -19 0 -9 27 -5 37 6 5 4 2 5 -6 0 -11
-6 -13 -4 -8 8 8 20 5 21 -11 5z"/>
<path d="M3076 2854 c-8 -20 -8 -24 2 -24 4 0 8 9 9 20 2 24 -3 26 -11 4z"/>
<path d="M3916 2861 c-3 -5 1 -11 9 -14 9 -4 12 -1 8 9 -6 16 -10 17 -17 5z"/>
<path d="M905 2826 c16 -24 16 -26 1 -32 -9 -3 -16 -10 -16 -15 0 -12 38 12
44 28 3 6 -6 19 -20 28 l-25 16 16 -25z"/>
<path d="M3718 2843 c-10 -2 -18 -9 -18 -14 0 -5 -3 -8 -7 -7 -5 2 -31 -10
-60 -26 -35 -19 -51 -34 -50 -47 1 -13 4 -15 14 -7 10 8 13 7 13 -3 0 -9 3
-10 8 -3 4 6 37 26 75 44 37 19 67 38 67 43 0 4 6 5 13 1 8 -5 8 -2 -2 9 -14
17 -21 19 -53 10z"/>
<path d="M963 2828 c-14 -19 -24 -50 -14 -43 5 3 11 2 14 -2 2 -5 3 -3 1 3 -1
7 4 21 12 33 16 22 3 30 -13 9z"/>
<path d="M1192 2829 c3 -8 -1 -22 -9 -31 -12 -13 -12 -21 -3 -35 9 -15 10 -15
4 7 -6 22 -5 23 10 11 10 -9 16 -10 16 -2 0 6 5 11 11 11 5 0 7 -5 3 -12 -4
-7 -3 -8 5 -4 6 4 8 12 5 18 -4 6 1 8 14 4 15 -5 24 -1 32 14 11 21 11 21 -37
24 -11 0 -17 -6 -17 -17 1 -9 -2 -17 -7 -17 -5 0 -9 6 -9 14 0 8 -5 18 -11 22
-7 4 -10 1 -7 -7z m73 -19 c-3 -5 -13 -6 -21 -3 -12 4 -13 8 -3 14 15 9 32 2
24 -11z"/>
<path d="M3910 2836 c0 -2 8 -10 18 -17 15 -13 16 -12 3 4 -13 16 -21 21 -21
13z"/>
<path d="M856 2818 c3 -4 11 -5 19 -1 21 7 19 12 -4 10 -11 0 -18 -5 -15 -9z"/>
<path d="M1293 2814 c-3 -7 -1 -18 3 -25 4 -7 3 -9 -4 -5 -6 3 -14 2 -17 -4
-4 -6 -3 -10 2 -9 27 5 35 -1 23 -16 -10 -12 -9 -16 3 -21 9 -3 14 -15 12 -30
-1 -13 2 -27 7 -30 5 -3 7 -12 4 -20 -3 -8 -1 -14 5 -14 6 0 7 -5 4 -10 -4 -6
-11 -7 -17 -4 -7 4 -8 2 -4 -5 4 -6 11 -9 16 -6 9 5 19 -34 23 -82 1 -13 6
-23 11 -23 6 0 -16 -25 -47 -56 -60 -59 -68 -74 -39 -74 9 0 30 -7 46 -15 25
-13 27 -13 22 0 -4 12 3 11 35 -5 26 -14 37 -25 32 -33 -4 -8 -1 -7 10 1 9 8
21 11 26 8 5 -4 13 -2 16 4 4 6 3 10 -2 9 -22 -4 -32 3 -30 21 1 11 5 20 10
20 5 0 7 -6 4 -14 -4 -9 0 -13 11 -11 9 2 20 4 25 4 4 1 7 6 7 12 0 5 -4 8 -9
4 -5 -3 -12 -1 -16 5 -3 5 0 10 8 10 8 0 18 7 21 16 5 13 9 14 21 4 9 -7 15
-8 15 -2 0 5 -7 12 -15 16 -8 3 -12 12 -9 21 6 13 9 13 22 -6 13 -19 16 -20
24 -5 5 9 6 21 3 26 -3 6 -2 10 4 10 5 0 12 -6 15 -12 3 -7 4 -4 3 7 -1 11 3
19 10 18 17 -4 9 25 -13 42 -18 15 -18 15 0 8 12 -4 17 -3 13 4 -7 12 32 11
51 -1 11 -7 11 -4 1 12 -7 12 -17 18 -22 15 -5 -3 -3 4 5 16 7 12 17 21 22 21
4 0 3 -6 -3 -13 -8 -10 -7 -14 4 -14 7 0 13 5 12 10 -1 5 4 12 12 15 9 3 11 0
6 -8 -5 -9 -4 -11 4 -6 8 6 9 12 2 20 -6 7 -8 16 -4 19 3 4 12 -1 20 -11 12
-15 13 -14 1 8 -7 14 -11 31 -9 39 1 7 -2 10 -8 6 -6 -3 -11 -2 -11 3 0 6 7
13 16 16 8 3 13 2 10 -2 -2 -4 3 -8 13 -8 9 0 17 8 17 18 0 12 -4 14 -12 7 -8
-7 -14 -6 -19 1 -3 6 -10 8 -15 5 -5 -3 2 13 15 37 33 58 22 75 -46 72 -48 -2
-74 -17 -63 -35 2 -4 0 -10 -5 -14 -6 -3 -20 -26 -32 -50 -12 -25 -25 -45 -29
-45 -3 0 -14 -14 -24 -30 -9 -17 -22 -28 -27 -24 -6 4 -6 11 1 19 8 10 8 15
-1 21 -8 4 -9 3 -5 -4 4 -7 2 -12 -3 -12 -6 0 -11 7 -11 15 0 8 5 15 11 15 6
0 3 7 -5 16 -19 19 -21 28 -3 18 6 -4 3 3 -8 16 -11 13 -14 20 -6 15 11 -6 11
-3 -2 14 -8 13 -13 29 -11 36 7 17 -22 28 -79 30 -32 1 -51 -3 -54 -11z m374
-184 c-6 -11 -13 -17 -16 -15 -2 3 1 11 7 18 9 10 8 17 -1 27 -10 12 -9 12 5
1 14 -10 15 -16 5 -31z m-86 -117 c3 1 -4 -6 -16 -17 -11 -10 -19 -25 -17 -32
2 -8 -1 -14 -5 -14 -5 0 -9 9 -10 20 -1 11 3 20 8 20 6 0 7 4 4 10 -4 6 1 7
12 3 16 -6 17 -5 3 13 -14 17 -13 18 1 7 9 -7 18 -12 20 -10z m-107 -89 c3 -8
2 -12 -4 -9 -6 3 -10 10 -10 16 0 14 7 11 14 -7z m-24 -14 c0 -5 -5 -10 -11
-10 -5 0 -7 5 -4 10 3 6 8 10 11 10 2 0 4 -4 4 -10z m-34 -47 c-3 -4 -6 -1 -6
6 0 7 -4 9 -10 6 -6 -4 -7 1 -3 11 6 15 7 15 15 -1 6 -9 7 -19 4 -22z"/>
<path d="M1839 2809 c-10 -10 -21 -34 -25 -54 -3 -19 -10 -38 -15 -40 -4 -3
-6 -14 -4 -25 2 -11 0 -20 -4 -20 -4 0 -8 -6 -9 -12 0 -7 -3 -24 -7 -38 -3
-14 -8 -32 -10 -40 -2 -8 -4 -15 -5 -15 -2 0 -11 -38 -12 -52 -1 -7 -5 -13 -9
-13 -4 0 -6 -8 -4 -17 1 -10 0 -22 -4 -28 -3 -5 -6 -14 -8 -20 -1 -5 -4 -20
-7 -32 -4 -18 0 -23 15 -23 10 0 19 -4 19 -10 0 -5 -8 -7 -17 -4 -15 5 -15 4
-4 -4 10 -7 21 -7 34 0 10 5 21 7 25 4 3 -3 1 -6 -5 -6 -10 0 -14 -29 -4 -31
33 -6 71 -5 71 3 0 5 5 6 11 2 6 -3 3 6 -7 22 -11 15 -13 25 -6 21 7 -5 12 -3
12 3 0 6 4 8 10 5 6 -3 7 1 4 10 -5 13 -9 13 -22 3 -14 -12 -14 -11 -1 10 8
12 18 22 23 22 4 0 2 8 -5 18 -13 15 -12 16 4 3 11 -9 14 -18 8 -25 -6 -7 -4
-15 4 -23 10 -9 12 -3 11 32 -2 34 0 42 11 38 11 -4 12 -8 3 -13 -7 -4 -8 -10
-3 -13 10 -6 35 6 34 17 -3 18 0 23 13 23 8 0 14 -5 13 -10 -1 -5 4 -12 11
-14 8 -3 10 1 5 14 -7 17 -6 17 11 1 9 -10 15 -22 11 -27 -3 -6 5 -15 17 -22
20 -11 21 -10 11 3 -13 15 -8 28 11 28 6 0 4 -5 -4 -10 -13 -8 -13 -10 2 -10
10 0 16 -6 14 -12 -1 -7 -1 -10 1 -6 2 4 12 4 21 1 14 -5 14 -4 -1 9 -18 13
-17 14 2 14 12 0 21 -5 21 -11 0 -5 5 -2 11 7 5 9 15 16 22 14 6 -1 9 -1 4 1
-14 8 4 22 21 17 13 -5 14 -4 4 4 -11 7 -10 11 5 16 17 7 17 8 -1 22 -11 8
-14 14 -7 14 7 0 9 5 5 12 -4 7 -3 8 5 4 6 -4 9 -11 6 -16 -3 -4 2 -10 10 -14
8 -3 17 0 21 7 4 7 4 9 -1 5 -10 -10 -33 32 -27 50 2 6 11 12 19 12 13 0 13 2
2 17 -10 11 -10 14 -1 9 8 -5 12 1 12 18 0 14 3 25 8 25 30 -5 34 2 14 24 -12
13 -22 31 -22 41 0 26 -26 71 -52 88 -16 10 -43 14 -88 12 -83 -4 -90 -6 -90
-16 0 -4 -7 -8 -15 -8 -8 0 -15 -5 -15 -11 0 -5 -5 -7 -10 -4 -6 4 -8 10 -5
15 16 26 -71 34 -96 9z m219 -72 c15 0 16 -13 2 -22 -6 -4 -8 -10 -5 -15 3 -5
0 -12 -6 -16 -8 -5 -9 -3 -4 6 6 9 4 11 -5 5 -9 -6 -11 -4 -5 6 5 8 -5 3 -21
-11 -15 -14 -23 -18 -16 -8 8 9 9 19 4 22 -11 7 -25 -22 -17 -34 3 -5 13 -6
22 -3 12 5 14 3 8 -7 -5 -8 -4 -11 3 -6 6 4 8 14 5 24 -5 14 -3 15 7 5 9 -8
19 -9 30 -3 14 8 16 5 12 -15 -2 -14 -8 -22 -13 -19 -5 3 -6 -2 -3 -10 6 -16
-43 -69 -56 -61 -5 3 -11 -1 -14 -7 -5 -11 -7 -11 -12 0 -3 6 -10 10 -15 6 -5
-3 -9 0 -9 5 0 6 -5 11 -11 11 -5 0 -7 -5 -3 -12 4 -7 3 -8 -5 -4 -6 4 -8 12
-5 18 5 8 1 9 -12 5 -18 -7 -18 -6 -2 6 12 10 14 17 7 24 -8 8 -7 13 2 18 8 6
10 4 4 -5 -5 -8 -3 -11 5 -8 7 2 15 13 16 23 2 11 11 25 21 33 15 10 15 14 4
21 -11 7 -10 11 6 20 11 5 23 7 27 4 3 -3 6 -1 6 6 0 9 6 11 18 6 9 -4 23 -8
30 -8z m172 -67 c0 -5 -7 -7 -15 -4 -8 4 -12 10 -9 15 6 11 24 2 24 -11z m-62
-164 c-2 0 -18 -14 -37 -31 -19 -16 -30 -23 -25 -15 5 8 8 24 6 35 -2 19 -1
19 6 1 6 -14 11 -16 16 -8 4 7 5 16 2 21 -4 5 3 7 14 4 12 -3 19 -6 18 -7z
m-104 -27 c-6 -11 -44 -12 -44 -1 0 4 11 8 25 8 14 1 22 -2 19 -7z m30 -13
c-6 -15 -24 -23 -24 -11 0 8 24 34 28 30 1 -1 0 -10 -4 -19z m-264 -106 c0 -5
-2 -10 -4 -10 -3 0 -8 5 -11 10 -3 6 -1 10 4 10 6 0 11 -4 11 -10z m-20 -20
c0 -5 -2 -10 -4 -10 -3 0 -8 5 -11 10 -3 6 -1 10 4 10 6 0 11 -4 11 -10z"/>
<path d="M2015 2729 c-4 -5 -10 -7 -15 -4 -5 3 -12 0 -16 -7 -4 -7 -4 -10 1
-6 4 4 14 3 21 -3 8 -7 14 -7 19 1 3 6 11 8 16 5 5 -4 9 -2 9 3 0 14 -28 23
-35 11z"/>
<path d="M1956 2665 c-3 -8 0 -15 6 -15 7 0 3 -7 -8 -15 -10 -8 -14 -15 -9
-15 6 0 3 -5 -5 -11 -10 -7 -11 -9 -2 -7 8 2 12 7 10 12 -2 4 8 14 22 21 14 8
19 14 12 15 -7 0 -11 4 -7 9 3 5 1 12 -4 15 -5 3 -11 -1 -15 -9z"/>
<path d="M2965 2820 c3 -5 8 -10 11 -10 2 0 4 5 4 10 0 6 -5 10 -11 10 -5 0
-7 -4 -4 -10z"/>
<path d="M2946 2787 c3 -10 9 -15 12 -12 3 3 0 11 -7 18 -10 9 -11 8 -5 -6z"/>
<path d="M3423 2768 c-23 -11 -64 -42 -92 -69 -40 -39 -55 -48 -68 -41 -10 6
-27 6 -44 0 -25 -9 -27 -13 -27 -71 l0 -63 55 2 c47 1 56 -1 60 -17 3 -11 12
-19 20 -19 10 0 13 -6 9 -16 -3 -9 -2 -12 5 -8 6 3 19 -3 30 -15 11 -12 27
-21 35 -21 8 0 12 -4 9 -10 -3 -6 5 -11 19 -11 14 -1 32 -2 39 -3 6 -1 19 -8
27 -16 8 -9 12 -11 9 -5 -3 5 -5 25 -3 43 1 21 -1 30 -8 26 -7 -5 -8 -2 -2 7
5 8 9 23 9 33 0 11 7 21 15 23 13 4 13 3 0 -7 -13 -10 -13 -11 2 -6 10 3 20 1
23 -4 8 -13 25 -13 25 1 0 5 -4 8 -9 4 -5 -3 -12 -1 -15 4 -4 5 2 12 11 14 17
4 17 5 0 6 -10 0 -15 6 -12 11 3 6 1 10 -4 10 -6 0 -11 -4 -11 -9 0 -6 -9 -9
-20 -8 -17 1 -18 3 -7 15 8 7 23 14 34 15 20 1 29 27 9 27 -5 0 -1 7 10 15 16
12 16 14 2 9 -11 -4 -20 0 -24 10 -3 9 -10 13 -15 11 -9 -6 -19 28 -17 60 4
90 -11 105 -79 73z m35 -36 c-11 -13 -11 -14 0 -8 11 7 12 4 3 -12 -13 -24
-14 -35 -3 -28 10 6 8 -56 -2 -72 -4 -7 -2 -12 5 -12 8 0 9 -3 0 -13 -6 -8 -9
-16 -6 -19 9 -8 11 -108 2 -108 -4 0 -5 -4 -2 -10 11 -18 -15 -11 -47 13 -17
12 -47 39 -66 60 -19 21 -42 36 -51 35 -9 -2 -22 3 -29 12 -8 8 -11 9 -7 2 5
-10 2 -13 -10 -10 -20 3 -29 46 -14 69 8 12 10 12 18 0 6 -9 10 -10 16 -2 5 9
11 9 23 -1 13 -11 14 -11 7 1 -6 11 -4 13 8 8 10 -3 17 -2 17 3 0 6 7 10 15
10 9 0 12 6 8 18 -3 9 -3 14 2 10 4 -4 19 7 32 23 14 16 28 28 30 25 3 -3 14
4 26 14 23 22 44 16 25 -8z"/>
<path d="M3421 2664 c0 -11 3 -14 6 -6 3 7 2 16 -1 19 -3 4 -6 -2 -5 -13z"/>
<path d="M3387 2639 c7 -7 15 -10 18 -7 3 3 -2 9 -12 12 -14 6 -15 5 -6 -5z"/>
<path d="M3359 2638 c-9 -17 -3 -51 10 -60 14 -11 14 -11 5 2 -6 8 -10 25 -9
38 1 19 -2 29 -6 20z"/>
<path d="M3266 2598 c3 -5 10 -6 15 -3 13 9 11 12 -6 12 -8 0 -12 -4 -9 -9z"/>
<path d="M3306 2602 c-3 -5 1 -9 9 -9 8 0 15 4 15 9 0 4 -4 8 -9 8 -6 0 -12
-4 -15 -8z"/>
<path d="M3326 2562 c-3 -5 1 -9 9 -9 8 0 12 4 9 9 -3 4 -7 8 -9 8 -2 0 -6 -4
-9 -8z"/>
<path d="M3731 2747 c-13 -21 -12 -21 5 -5 10 10 16 20 13 22 -3 3 -11 -5 -18
-17z"/>
<path d="M3773 2751 c0 -11 5 -18 9 -15 4 3 5 11 1 19 -7 21 -12 19 -10 -4z"/>
<path d="M4030 2760 c0 -5 5 -10 11 -10 5 0 7 5 4 10 -3 6 -8 10 -11 10 -2 0
-4 -4 -4 -10z"/>
<path d="M4071 2761 c-10 -6 -9 -10 3 -14 8 -3 18 -2 21 3 8 13 -9 20 -24 11z"/>
<path d="M4110 2750 c0 -21 2 -25 11 -22 6 1 9 -6 7 -15 -2 -10 3 -18 12 -18
8 -1 14 -6 13 -12 -1 -6 4 -14 13 -17 10 -4 12 -2 7 7 -5 6 -19 29 -32 50 -24
38 -31 44 -31 27z"/>
<path d="M1705 2740 c3 -6 1 -10 -6 -10 -7 0 -10 -3 -6 -6 3 -3 13 -2 22 4 16
8 16 9 1 15 -10 4 -15 3 -11 -3z"/>
<path d="M3700 2731 c5 -11 10 -21 10 -24 0 -7 -35 -1 -49 8 -10 5 -12 4 -7
-4 9 -14 -34 -32 -49 -21 -6 5 -11 -1 -11 -15 -2 -21 2 -23 32 -22 19 1 34 4
34 7 0 5 25 10 65 13 6 0 12 11 13 24 1 15 -2 22 -9 18 -6 -4 -13 2 -16 14 -3
12 -9 21 -15 21 -5 0 -4 -8 2 -19z"/>
<path d="M1120 2697 c-10 -19 -9 -20 2 -6 7 9 19 14 26 12 17 -6 15 4 -3 11
-9 3 -19 -3 -25 -17z"/>
<path d="M2834 2709 c-3 -6 -2 -15 3 -20 5 -5 9 -1 10 11 2 22 -2 25 -13 9z"/>
<path d="M1700 2659 c0 -5 5 -7 10 -4 6 3 10 8 10 11 0 2 -4 4 -10 4 -5 0 -10
-5 -10 -11z"/>
<path d="M4190 2649 c0 -5 5 -7 10 -4 6 3 10 8 10 11 0 2 -4 4 -10 4 -5 0 -10
-5 -10 -11z"/>
<path d="M2230 2630 c-9 -6 -10 -10 -3 -10 6 0 15 5 18 10 8 12 4 12 -15 0z"/>
<path d="M2750 2626 c-8 -10 -6 -15 6 -20 9 -4 19 -4 22 -1 3 3 0 5 -6 5 -7 0
-12 4 -12 10 0 5 7 7 15 4 8 -4 15 -4 15 -1 0 12 -30 14 -40 3z"/>
<path d="M3735 2618 c-4 -9 -25 -12 -69 -10 -50 3 -64 0 -69 -12 -5 -11 1 -17
21 -22 15 -3 33 -7 40 -10 6 -2 12 0 12 4 0 4 11 8 25 8 14 1 22 -2 19 -7 -3
-5 7 -4 21 1 17 7 24 7 20 0 -3 -6 -1 -10 4 -10 6 0 11 4 11 10 0 5 6 7 13 4
7 -2 21 3 32 12 11 8 14 13 8 9 -7 -3 -13 -1 -13 5 0 6 -6 10 -12 9 -31 -4
-59 2 -53 11 3 6 4 10 0 10 -3 0 -8 -6 -10 -12z"/>
<path d="M2196 2577 c-16 -12 -16 -14 -2 -26 15 -12 18 -9 15 15 0 4 5 11 13
15 7 5 8 9 2 9 -5 0 -18 -6 -28 -13z"/>
<path d="M4236 2567 c3 -10 9 -15 12 -12 3 3 0 11 -7 18 -10 9 -11 8 -5 -6z"/>
<path d="M3691 2544 c0 -11 3 -14 6 -6 3 7 2 16 -1 19 -3 4 -6 -2 -5 -13z"/>
<path d="M1597 2544 c-3 -5 1 -15 9 -22 16 -14 18 -5 5 17 -5 7 -11 9 -14 5z"/>
<path d="M3598 2532 c3 -10 1 -13 -6 -8 -7 4 -10 2 -6 -7 2 -7 10 -14 17 -14
7 -1 35 -8 64 -16 37 -10 53 -11 56 -3 2 7 10 6 23 -4 12 -9 10 -4 -5 13 -26
29 -37 35 -25 15 9 -15 -24 8 -45 32 -12 13 -13 13 -8 -2 4 -10 2 -18 -3 -18
-5 0 -14 8 -19 18 -6 9 -11 11 -11 5 0 -7 -5 -13 -11 -13 -5 0 -8 4 -5 8 3 5
-1 9 -8 9 -8 0 -12 -7 -8 -15z"/>
<path d="M3750 2529 c0 -5 -5 -7 -12 -3 -7 4 -8 3 -4 -4 4 -6 13 -9 21 -6 8 4
12 10 9 15 -7 12 -14 11 -14 -2z"/>
<path d="M1097 2523 c-10 -9 -9 -33 1 -33 4 0 8 9 8 20 0 23 0 22 -9 13z"/>
<path d="M1061 2506 c-9 -10 -8 -15 2 -19 8 -3 13 3 13 14 0 23 0 23 -15 5z"/>
<path d="M3806 2505 c-11 -8 -15 -15 -9 -15 6 0 16 7 23 15 16 19 11 19 -14 0z"/>
<path d="M3235 2481 c3 -6 -3 -14 -12 -20 -10 -6 -13 -11 -7 -11 12 0 34 20
34 32 0 4 -5 8 -11 8 -5 0 -8 -4 -4 -9z"/>
<path d="M3674 2465 c1 -8 8 -21 16 -28 12 -10 12 -9 2 4 -6 9 -9 18 -6 21 3
3 1 9 -4 12 -6 3 -9 -1 -8 -9z"/>
<path d="M1050 2459 c0 -5 -4 -8 -9 -5 -4 3 -17 -4 -27 -16 -11 -12 -13 -18
-5 -13 11 6 13 4 8 -11 -7 -18 -6 -18 6 -2 8 10 18 14 22 10 5 -4 5 -1 1 6 -4
7 -1 15 8 18 18 7 22 24 6 24 -5 0 -10 -5 -10 -11z"/>
<path d="M1943 2463 c4 -3 3 -11 -3 -17 -5 -7 -5 -17 0 -26 9 -13 10 -13 10 0
1 11 4 10 15 -4 8 -11 15 -15 15 -9 0 6 10 9 23 7 15 -3 17 -2 6 3 -9 5 -15
16 -14 25 2 10 -2 15 -10 12 -7 -3 -16 -1 -20 5 -3 6 -11 11 -17 11 -6 0 -8
-3 -5 -7z m36 -22 c9 -6 10 -11 2 -15 -6 -4 -11 -2 -11 4 0 7 -7 9 -16 6 -8
-3 -12 -2 -9 4 8 12 16 12 34 1z"/>
<path d="M2651 2446 c-9 -10 -9 -16 -1 -21 8 -5 8 -11 -1 -21 -18 -22 -1 -16
23 8 15 15 17 20 5 15 -9 -3 -19 -2 -22 3 -3 4 1 10 7 13 7 2 10 7 7 11 -3 4
-12 0 -18 -8z"/>
<path d="M3580 2441 c-8 -16 -6 -21 10 -26 11 -3 20 -11 20 -16 0 -6 5 -7 10
-4 6 3 10 -1 10 -9 0 -9 5 -16 10 -16 6 0 10 6 10 13 0 9 2 9 8 0 7 -12 51
-32 84 -38 14 -3 17 10 8 35 -1 3 -2 8 -1 13 0 4 -2 6 -6 5 -18 -5 -83 24 -76
35 4 6 0 8 -10 4 -10 -4 -17 -1 -17 5 0 6 -3 8 -6 5 -4 -3 -15 -2 -25 3 -14 8
-21 6 -29 -9z"/>
<path d="M1913 2415 c0 -8 4 -12 9 -9 5 3 6 10 3 15 -9 13 -12 11 -12 -6z"/>
<path d="M3439 2398 c-7 -23 -4 -38 7 -42 11 -4 12 -1 5 13 -6 10 -7 21 -4 25
3 3 3 6 0 6 -4 0 -7 -1 -8 -2z"/>
<path d="M4487 2380 c3 -11 9 -22 13 -25 5 -3 6 4 3 15 -3 11 -9 22 -13 25 -5
3 -6 -4 -3 -15z"/>
<path d="M1523 2346 c-10 -31 -11 -66 -1 -60 11 7 39 -22 30 -31 -4 -5 -1 -5
6 -1 10 6 10 11 1 22 -6 8 -9 17 -6 21 4 3 9 -2 13 -11 5 -14 9 -14 22 -4 13
11 14 11 7 -1 -6 -11 -4 -13 8 -8 8 3 21 -1 27 -8 7 -8 17 -12 23 -8 6 4 7 1
3 -6 -5 -7 -10 -10 -13 -7 -3 3 -15 0 -27 -6 -11 -6 -39 -11 -61 -11 -46 0
-118 -35 -157 -76 -29 -31 -64 -122 -55 -145 3 -7 0 -19 -6 -25 -8 -8 -8 -11
2 -11 7 0 9 -4 6 -10 -3 -5 -1 -10 5 -10 7 0 10 -6 7 -14 -3 -7 0 -19 6 -25 8
-8 7 -11 -3 -11 -7 0 -11 -3 -7 -6 3 -3 11 -3 17 1 8 5 8 11 -1 21 -7 9 -8 14
-1 14 6 0 14 -9 17 -20 5 -16 12 -19 28 -15 19 5 20 5 4 -5 -9 -6 -22 -8 -27
-5 -6 4 -7 -1 -3 -11 5 -13 3 -15 -8 -9 -8 5 -11 4 -6 0 10 -11 39 -16 32 -5
-3 4 1 10 9 13 16 6 17 -23 1 -36 -6 -5 -3 -7 7 -4 9 4 19 -1 22 -10 4 -9 9
-13 13 -10 3 4 12 -1 20 -11 13 -15 13 -15 3 6 -13 26 -3 29 17 5 13 -16 13
-16 3 5 -11 22 2 33 15 12 4 -6 11 -8 16 -5 5 4 9 2 9 -3 0 -6 6 -12 13 -15
15 -6 21 29 6 38 -5 4 -9 1 -9 -5 0 -6 -4 -8 -10 -5 -13 8 -13 42 1 51 8 4 9
-1 4 -17 -7 -21 -6 -22 8 -11 9 8 13 21 10 30 -4 14 -3 15 5 2 8 -10 8 -18 0
-27 -6 -7 -6 -13 -1 -13 15 0 32 22 27 35 -3 6 2 12 10 12 10 0 13 -5 7 -15
-5 -8 -6 -24 -3 -35 3 -14 1 -18 -7 -13 -6 4 -8 12 -5 18 4 6 2 8 -4 4 -10 -6
-9 -43 2 -53 4 -5 37 51 36 62 -1 24 2 28 11 13 6 -11 16 -15 26 -11 11 4 14
3 9 -6 -4 -6 -15 -10 -23 -9 -9 2 -18 -4 -20 -12 -3 -9 -1 -11 4 -5 4 6 18 10
30 9 12 -1 20 2 18 7 -3 4 -1 10 5 14 5 3 10 0 11 -7 0 -7 4 -3 9 9 7 16 14
21 27 16 13 -4 11 1 -7 17 -17 15 -19 21 -7 17 9 -4 25 -10 35 -14 10 -4 7 2
-8 14 -13 11 -31 19 -40 16 -13 -4 -13 -3 -1 5 10 7 21 6 35 -3 22 -14 58 -4
43 12 -5 4 -11 2 -15 -4 -5 -8 -10 -7 -19 2 -10 10 -9 14 3 19 9 3 12 11 8 17
-4 8 -3 9 5 5 6 -4 8 -13 5 -19 -4 -7 -4 -9 1 -5 4 4 15 2 24 -4 13 -10 14
-10 4 2 -19 21 -16 34 5 19 15 -13 16 -12 4 3 -9 11 -10 18 -2 23 17 10 -8 35
-28 28 -13 -4 -14 -3 -3 5 7 5 18 16 23 23 8 11 8 10 4 -4 -3 -11 -2 -16 4
-12 6 3 10 1 10 -6 0 -7 3 -9 6 -6 4 4 -1 18 -10 33 -17 25 -17 26 1 22 10 -2
17 -10 15 -17 -1 -7 2 -9 9 -6 8 5 8 10 0 18 -8 8 -6 17 7 31 17 21 17 21 -6
2 -18 -16 -25 -17 -35 -6 -8 9 -9 11 0 6 6 -3 14 -2 18 4 3 5 1 10 -4 10 -6 0
-11 5 -11 11 0 5 6 7 13 3 7 -5 6 0 -3 11 -8 10 -10 16 -4 12 6 -3 11 0 11 8
0 8 -4 12 -9 9 -4 -3 -8 6 -8 19 0 33 -20 87 -32 87 -6 0 -8 7 -5 15 4 8 2 17
-4 20 -5 4 -6 12 -2 18 4 7 -1 6 -11 -2 -10 -9 -20 -11 -24 -5 -11 14 -57 24
-144 28 -51 3 -58 0 -65 -18z m150 -127 c-8 -8 -13 -7 -18 2 -5 8 -4 10 3 5 7
-4 12 -2 12 5 0 7 3 9 7 6 4 -4 2 -12 -4 -18z m-111 -83 c5 3 8 -2 6 -12 -2
-11 6 -23 19 -29 13 -7 20 -15 16 -18 -3 -4 -11 -3 -17 3 -17 13 -37 -2 -26
-20 8 -12 10 -12 10 4 0 19 0 19 22 0 12 -10 18 -13 14 -6 -4 6 -3 12 3 12 5
0 9 8 8 19 0 10 -8 18 -16 17 -9 -1 -16 7 -16 19 0 11 7 20 15 20 8 0 14 -6
12 -14 -2 -9 3 -11 13 -7 9 3 13 2 10 -4 -3 -6 -3 -16 2 -22 11 -19 13 -39 2
-32 -5 3 -9 0 -9 -5 0 -6 5 -11 11 -11 5 0 -2 -16 -17 -35 -14 -19 -30 -33
-34 -30 -5 3 -10 1 -12 -5 -4 -13 -87 -14 -89 -1 0 3 -2 17 -5 31 -3 18 -1 21
5 11 14 -22 63 13 59 42 -5 30 -17 49 -29 42 -5 -3 -6 1 -3 10 6 14 8 13 21
-5 8 -11 19 -20 24 -20 6 0 3 10 -5 22 -9 12 -16 27 -15 33 0 5 3 4 6 -3 2 -6
9 -9 15 -6z m-28 -62 c10 -25 7 -33 -14 -44 -16 -9 -19 -8 -13 6 4 11 2 15 -4
11 -5 -3 -10 0 -10 8 0 11 4 12 13 4 8 -7 14 -7 19 1 3 5 1 10 -4 10 -6 0 -11
5 -11 10 0 16 17 12 24 -6z m263 -69 c-6 -7 -15 -11 -19 -8 -14 8 -8 19 12 20
16 1 17 -1 7 -12z m-85 -109 c7 4 8 2 4 -5 -4 -6 -12 -9 -17 -6 -5 4 -9 1 -9
-5 0 -6 -5 -8 -12 -4 -9 6 -9 9 0 12 7 2 13 11 13 20 1 15 2 15 6 -1 2 -9 9
-14 15 -11z m-192 -38 c0 -5 -7 -3 -15 6 -8 8 -15 18 -15 22 0 3 7 1 15 -6 8
-7 15 -17 15 -22z m-34 -2 c14 5 12 2 -6 -13 -22 -19 -25 -19 -36 -4 -15 20
-7 36 11 21 7 -6 21 -7 31 -4z"/>
<path d="M1870 2359 c0 -5 5 -7 10 -4 6 3 10 8 10 11 0 2 -4 4 -10 4 -5 0 -10
-5 -10 -11z"/>
<path d="M3476 2362 c-3 -5 1 -9 9 -9 8 0 12 4 9 9 -3 4 -7 8 -9 8 -2 0 -6 -4
-9 -8z"/>
<path d="M1318 2353 c6 -2 10 -8 7 -13 -3 -4 2 -13 11 -20 12 -11 17 -11 27 0
10 10 8 12 -8 6 -15 -5 -17 -4 -9 4 9 9 17 9 33 1 13 -7 21 -8 21 -2 0 17 -36
31 -47 20 -8 -8 -13 -7 -17 0 -4 6 -13 11 -19 10 -9 0 -8 -2 1 -6z"/>
<path d="M3516 2347 c3 -10 9 -15 12 -12 3 3 0 11 -7 18 -10 9 -11 8 -5 -6z"/>
<path d="M3615 2340 c3 -5 8 -10 11 -10 2 0 4 5 4 10 0 6 -5 10 -11 10 -5 0
-7 -4 -4 -10z"/>
<path d="M3670 2340 c-8 -5 -10 -10 -5 -10 6 0 17 5 25 10 8 5 11 10 5 10 -5
0 -17 -5 -25 -10z"/>
<path d="M467 2216 c-51 -67 -115 -150 -142 -186 -27 -36 -57 -74 -67 -84 -20
-22 -21 -26 -9 -45 5 -7 13 -11 19 -7 6 3 14 1 18 -5 4 -8 9 -7 15 2 7 11 9
11 9 1 0 -7 5 -10 10 -7 6 3 10 2 10 -3 0 -6 -7 -13 -16 -16 -8 -3 -12 -2 -9
4 3 6 -1 7 -10 3 -12 -4 -13 -8 -5 -13 9 -6 7 -11 -6 -20 -15 -9 -15 -10 -2
-6 9 3 19 1 22 -5 2 -5 3 -4 2 3 -3 14 61 51 74 43 9 -6 23 12 27 34 1 8 10
21 19 30 17 15 17 15 5 -1 -7 -9 -9 -23 -5 -29 4 -7 3 -9 -4 -5 -12 7 -10 -20
3 -31 4 -4 5 -3 1 4 -3 6 -2 14 4 18 6 4 8 9 6 13 -2 4 2 16 10 27 8 10 14 14
14 9 0 -6 -5 -15 -12 -22 -9 -9 -9 -12 0 -12 7 0 15 7 18 15 4 8 10 15 16 15
5 0 6 -6 2 -12 -6 -10 -5 -10 7 -1 9 7 20 8 28 3 8 -4 21 -6 29 -2 9 3 13 1 9
-4 -3 -6 4 -11 16 -11 12 -1 17 1 12 5 -6 4 -10 13 -11 20 -2 27 -5 32 -16 32
-9 0 -9 -3 0 -12 7 -7 12 -17 12 -23 0 -5 -7 -1 -15 9 -8 10 -12 24 -8 29 4 6
0 8 -11 4 -11 -4 -15 -3 -11 4 4 6 14 8 22 5 8 -3 23 -1 33 4 16 8 18 8 14 -5
-7 -18 12 -21 20 -2 3 8 8 7 16 -6 6 -9 16 -14 22 -11 7 5 8 2 3 -5 -5 -9 -10
-10 -18 -2 -16 16 -32 14 -18 -2 8 -10 7 -14 -4 -14 -8 0 -12 4 -10 8 3 4 -2
9 -10 13 -17 6 -19 -2 -6 -23 5 -7 13 -11 19 -7 6 3 13 2 17 -4 3 -5 12 -10
18 -10 7 0 6 4 -3 11 -13 9 -13 10 0 6 8 -2 14 -12 14 -21 -1 -9 3 -16 10 -16
6 0 4 -5 -4 -11 -12 -8 -9 -9 9 -4 18 6 23 4 19 -7 -6 -14 6 -34 32 -55 13
-10 16 -8 17 10 2 15 0 18 -6 8 -5 -7 -11 -9 -13 -5 -3 5 4 17 14 27 17 17 19
17 16 1 -2 -9 3 -19 11 -22 8 -3 11 0 7 7 -5 7 -1 9 9 5 12 -5 13 -10 4 -20
-6 -8 -15 -12 -18 -9 -4 2 -8 -2 -8 -10 0 -10 4 -12 12 -5 7 5 16 6 20 2 5 -4
5 -2 1 5 -3 6 -2 14 4 18 6 4 8 10 5 15 -3 5 -1 11 5 15 13 8 13 25 -1 25 -5
0 -8 -4 -4 -9 3 -5 1 -12 -4 -15 -5 -4 -8 1 -7 10 1 8 8 19 15 24 9 5 10 13 5
21 -11 18 -14 40 -5 35 4 -3 7 4 7 14 0 15 -3 17 -15 7 -8 -7 -12 -7 -9 -1 4
5 3 26 -1 46 -6 24 -5 41 3 49 8 9 8 10 -1 5 -6 -3 -14 -2 -18 4 -3 5 -1 10 4
10 6 0 11 5 11 11 0 5 -4 7 -10 4 -6 -3 -7 1 -4 9 3 9 1 16 -6 16 -7 0 -9 11
-6 30 2 19 0 30 -7 31 -7 0 -3 4 8 9 18 8 18 9 -5 9 -20 1 -22 3 -10 11 10 6
11 10 3 10 -7 0 -13 10 -14 23 0 12 -6 36 -12 52 -12 29 -13 30 -85 31 l-72 0
-93 -120z m138 -45 c-3 -5 -1 -12 5 -16 6 -4 8 -11 5 -16 -4 -5 -1 -9 4 -9 6
0 11 -4 11 -8 0 -15 -38 -7 -49 10 -7 11 -7 18 -1 18 5 0 10 -5 10 -11 0 -5 5
-7 10 -4 8 5 8 11 1 19 -6 7 -8 16 -4 19 9 10 15 8 8 -2z m-58 -43 c-3 -8 -6
-5 -6 6 -1 11 2 17 5 13 3 -3 4 -12 1 -19z m36 -32 c-4 -6 1 -5 10 3 14 11 20
11 32 1 15 -13 12 -30 -6 -30 -6 0 -7 6 -4 13 4 6 0 4 -8 -6 -11 -14 -16 -15
-20 -5 -4 11 -7 10 -15 -1 -7 -9 -12 -10 -16 -2 -4 6 -12 8 -18 5 -7 -4 -8 -2
-4 4 4 7 2 12 -4 12 -6 0 -8 5 -5 11 5 6 11 4 19 -7 15 -20 32 -3 22 23 -5 13
-4 14 9 3 8 -7 12 -17 8 -24z m-103 -110 c0 -2 -8 -10 -17 -17 -16 -13 -17
-12 -4 4 13 16 21 21 21 13z m30 -6 c0 -5 -5 -10 -11 -10 -5 0 -7 5 -4 10 3 6
8 10 11 10 2 0 4 -4 4 -10z m-15 -30 c3 -6 -1 -7 -9 -4 -18 7 -21 14 -7 14 6
0 13 -4 16 -10z m41 -8 c1 -7 0 -8 -3 -2 -2 5 -9 8 -14 4 -5 -3 -9 0 -9 6 0
15 23 7 26 -8z m-146 -42 c0 -5 -5 -10 -11 -10 -5 0 -7 5 -4 10 3 6 8 10 11
10 2 0 4 -4 4 -10z m328 -36 c-11 -11 -18 -12 -22 -5 -4 6 0 11 8 11 9 0 16 5
16 12 0 6 3 8 7 4 4 -3 0 -14 -9 -22z"/>
<path d="M1293 2325 c0 -8 3 -13 5 -10 3 3 15 -3 26 -12 15 -13 14 -10 -3 10
-29 32 -28 31 -28 12z"/>
<path d="M3357 2334 c-4 -4 -41 -7 -81 -7 -79 1 -105 -9 -111 -42 -2 -11 -4
-21 -5 -22 -2 -2 -3 -6 -4 -10 -16 -70 -30 -120 -37 -129 -5 -6 -6 -14 -2 -17
3 -4 2 -7 -4 -7 -6 0 -9 -9 -6 -20 3 -12 0 -20 -6 -20 -7 0 -10 -4 -7 -9 3 -4
-3 -38 -14 -75 -16 -57 -16 -66 -4 -66 8 0 12 -4 9 -10 -3 -5 -2 -10 4 -10 5
0 12 6 14 13 4 10 6 10 6 0 1 -7 6 -13 12 -13 5 0 7 5 3 12 -4 7 -3 8 4 4 20
-12 2 -37 -21 -30 -20 6 -20 6 -4 -10 9 -10 15 -21 12 -26 -3 -5 7 -6 22 -4
16 3 37 6 48 8 11 1 21 8 21 14 1 7 3 14 4 17 1 3 3 9 4 15 0 5 8 18 18 29 12
14 13 22 5 31 -9 10 -8 12 8 6 20 -6 20 -6 1 9 -17 13 -16 19 4 17 12 -1 4 46
-10 64 -8 10 -10 16 -6 12 5 -5 16 1 23 12 8 12 20 17 26 13 7 -4 6 0 -2 10
-7 9 -11 18 -7 18 3 1 10 2 15 3 5 0 13 5 18 10 5 5 3 6 -4 2 -8 -4 -13 -1
-13 8 0 9 -4 16 -10 16 -15 0 -12 12 11 40 14 16 19 19 15 8 -3 -12 0 -18 10
-18 8 0 12 -5 9 -10 -5 -8 -11 -8 -20 0 -9 8 -15 8 -20 0 -3 -5 1 -10 10 -10
10 0 13 -5 9 -12 -4 -7 4 -3 17 8 13 12 30 20 37 18 7 -1 8 0 2 3 -7 3 -8 9
-1 17 8 9 7 13 -4 13 -8 0 -11 -5 -8 -10 4 -6 1 -7 -7 -2 -9 6 -11 4 -5 -5 5
-9 4 -11 -4 -6 -6 4 -9 11 -6 16 3 5 -3 15 -15 22 -28 18 -25 24 10 24 17 0
30 -4 30 -9 0 -6 5 -6 13 0 6 6 26 9 42 8 17 -1 38 3 47 7 14 7 16 5 11 -8 -4
-12 -3 -15 5 -10 11 7 -15 -61 -28 -74 -3 -3 -6 -12 -7 -20 -1 -8 -9 -42 -19
-75 -27 -96 -25 -108 14 -151 22 -25 33 -32 28 -19 -6 20 -6 20 9 1 17 -22 61
-34 49 -14 -6 10 -5 10 8 1 8 -7 18 -10 21 -6 4 3 -1 12 -11 20 -9 7 -12 13
-7 12 6 -1 13 0 18 1 12 4 26 7 38 9 5 0 8 5 5 9 -3 5 1 9 9 9 8 0 12 -4 9 -8
-2 -4 0 -10 6 -14 6 -4 8 -11 5 -16 -4 -5 -1 -9 5 -9 7 0 9 -8 5 -20 -4 -12
-2 -20 5 -20 6 0 8 5 5 10 -3 6 -2 10 4 10 6 0 8 6 5 14 -7 18 12 30 22 15 5
-8 3 -9 -6 -4 -8 5 -11 3 -8 -6 3 -8 11 -13 17 -11 6 1 20 4 31 5 11 2 23 7
27 12 5 4 3 5 -3 2 -7 -4 -15 0 -18 8 -4 12 0 14 18 11 15 -3 23 1 23 10 0 11
-3 11 -15 1 -13 -10 -14 -8 -7 13 4 14 14 31 24 39 15 13 15 13 -1 8 -11 -4
-18 -1 -19 6 -1 7 -2 19 -3 27 -1 8 3 21 8 28 4 6 5 12 1 12 -4 0 -2 7 5 15 7
8 9 15 4 16 -5 0 0 4 11 9 17 7 17 9 3 9 -21 1 -22 5 -8 31 12 23 -11 39 -50
35 -14 -2 -31 -4 -37 -4 -7 -1 -12 -4 -12 -8 1 -5 0 -10 -1 -13 -1 -3 -3 -13
-5 -22 -13 -69 -48 -133 -66 -122 -5 3 -6 -2 -3 -10 4 -12 0 -14 -21 -10 -17
3 -24 1 -20 -6 3 -6 0 -7 -10 -4 -12 5 -13 10 -4 20 6 8 15 12 19 9 4 -3 7 3
6 13 0 9 5 16 12 14 8 -1 11 2 7 8 -5 8 -11 7 -21 -1 -8 -6 -14 -8 -15 -3 -6
51 -4 70 7 81 23 23 3 60 -30 54 -5 -1 -6 5 -3 13 4 10 1 13 -8 9 -8 -3 -13
-8 -10 -12 2 -4 -2 -8 -10 -8 -19 0 -20 13 -2 20 7 3 12 18 12 33 -1 16 3 37
8 47 13 28 17 58 6 52 -5 -4 -9 -2 -9 2 0 5 -27 6 -60 3 -33 -3 -61 -2 -63 3
-1 4 -6 5 -10 1z m-83 -209 c-4 -8 -11 -12 -16 -9 -6 4 -5 10 3 15 19 12 19
11 13 -6z m-4 -30 c0 -2 -6 -5 -13 -8 -8 -3 -14 1 -14 8 0 7 6 11 14 8 7 -3
13 -6 13 -8z m-28 -82 c-6 -3 -9 -10 -6 -15 4 -7 2 -8 -5 -4 -9 6 -9 11 0 22
6 8 15 12 18 8 3 -4 0 -9 -7 -11z m288 3 c0 -2 -7 -7 -16 -10 -8 -3 -12 -2 -9
4 6 10 25 14 25 6z m193 -51 c-7 -21 -12 -19 -10 4 0 11 5 18 9 15 4 -3 5 -11
1 -19z m-497 -18 c-4 -31 -14 -47 -29 -46 -9 0 -8 2 1 6 6 2 10 9 6 14 -3 5 0
9 5 9 6 0 11 5 11 11 0 5 -4 7 -10 4 -6 -3 -7 1 -4 9 9 24 23 19 20 -7z m-26
-73 c-6 -6 -6 -15 -2 -20 4 -4 -1 -2 -10 5 -10 7 -18 9 -18 3 0 -14 -31 -25
-42 -14 -5 5 -1 15 8 23 12 9 15 10 10 2 -4 -7 -2 -13 4 -13 6 0 13 6 16 14 3
8 14 14 24 13 13 -1 16 -5 10 -13z"/>
<path d="M3710 2329 c0 -5 -5 -7 -12 -3 -7 4 -8 3 -4 -4 4 -6 13 -9 21 -6 8 4
12 10 9 15 -7 12 -14 11 -14 -2z"/>
<path d="M3636 2321 c-3 -5 2 -15 12 -22 15 -12 16 -12 5 2 -7 9 -10 19 -6 22
3 4 4 7 0 7 -3 0 -8 -4 -11 -9z"/>
<path d="M1359 2292 c-12 -15 -12 -16 2 -5 8 7 26 11 39 8 12 -2 20 -1 16 2
-14 14 -45 12 -57 -5z"/>
<path d="M3675 2300 c3 -5 8 -10 11 -10 2 0 4 5 4 10 0 6 -5 10 -11 10 -5 0
-7 -4 -4 -10z"/>
<path d="M3718 2298 c-9 -5 -6 -7 9 -5 12 2 25 6 28 8 8 9 -23 6 -37 -3z"/>
<path d="M1577 2256 c-3 -8 0 -16 7 -19 16 -6 50 19 37 28 -6 3 -11 1 -11 -6
0 -9 -3 -9 -14 0 -10 9 -15 8 -19 -3z"/>
<path d="M3320 2228 c8 -8 24 -15 35 -14 11 1 19 -5 18 -11 -2 -7 2 -13 8 -13
5 0 7 -5 3 -12 -4 -7 -3 -8 5 -4 6 4 8 12 5 18 -5 8 -1 9 10 5 10 -4 20 -7 22
-7 3 0 2 -5 -2 -12 -5 -7 -3 -8 5 -4 7 5 10 10 7 14 -3 3 2 10 11 17 35 26 6
33 -92 24 -5 -1 -19 2 -30 7 -17 7 -18 6 -5 -8z m97 -13 c1 -11 -17 -8 -30 4
-4 4 0 7 10 6 10 0 19 -5 20 -10z"/>
<path d="M3501 2224 c0 -11 3 -14 6 -6 3 7 2 16 -1 19 -3 4 -6 -2 -5 -13z"/>
<path d="M914 2222 c-22 -3 -40 -41 -26 -52 4 -3 7 -21 7 -40 0 -19 3 -37 7
-40 4 -3 8 -17 10 -30 2 -14 7 -31 12 -38 4 -7 2 -20 -6 -29 -7 -9 -8 -14 -2
-10 7 4 15 0 18 -9 5 -12 2 -15 -11 -10 -15 5 -15 4 1 -9 35 -27 29 -51 -27
-107 -28 -30 -53 -58 -54 -64 -1 -5 17 -11 40 -12 60 -3 67 -4 61 -14 -3 -4 2
-8 10 -8 8 0 18 5 21 10 4 6 10 8 15 5 5 -3 11 -1 15 5 4 6 10 8 15 5 5 -3 12
4 15 16 5 16 9 18 15 9 5 -8 16 -15 25 -16 14 -2 13 3 -6 24 -13 14 -17 21 -7
14 11 -9 18 -10 23 -2 10 15 23 12 28 -7 3 -10 4 -6 4 9 -1 15 -4 25 -7 23 -3
-2 -6 4 -6 14 0 10 6 18 13 18 7 0 10 -3 8 -7 -6 -10 33 -5 42 5 5 4 3 5 -3 2
-6 -4 -20 3 -30 16 -16 19 -17 20 -1 8 9 -8 20 -11 24 -7 4 3 -1 12 -11 19
-17 12 -17 14 1 28 16 13 17 13 4 -3 -9 -12 -10 -18 -2 -18 6 0 16 10 21 23 6
15 9 17 9 6 1 -9 9 -23 19 -30 16 -13 16 -13 2 5 -14 18 -13 19 5 13 19 -7 19
-7 1 8 -18 13 -18 16 -2 40 9 14 22 25 28 25 6 0 8 3 5 6 -9 10 12 46 24 39 5
-4 9 -1 9 4 0 6 -6 11 -12 11 -7 0 -4 6 7 12 11 6 23 15 26 20 3 6 9 9 13 9 3
-1 6 1 6 4 0 3 0 8 0 11 0 3 -14 -5 -31 -17 l-31 -22 13 22 c8 11 18 21 22 21
5 0 7 7 3 15 -3 8 -1 15 4 15 5 0 7 9 5 20 -2 11 2 20 8 20 7 1 5 6 -5 13 -14
11 -30 13 -99 8 -9 -1 -30 -29 -49 -66 -40 -78 -74 -127 -83 -118 -4 3 -7 -2
-8 -13 0 -18 -1 -18 -8 1 -5 11 -6 22 -2 25 11 9 11 30 -1 28 -6 -2 -12 11
-12 32 -1 19 -7 41 -14 49 -8 8 -11 22 -9 32 7 26 -41 40 -99 31z m173 -372
c-1 -11 -5 -20 -9 -20 -10 0 -10 4 -2 24 8 22 13 20 11 -4z m-66 -53 c-10 -9
-11 -8 -5 6 3 10 9 15 12 12 3 -3 0 -11 -7 -18z"/>
<path d="M1978 2223 c-16 -4 -34 -38 -30 -55 1 -5 -2 -8 -7 -8 -6 0 -8 -9 -6
-19 2 -11 -3 -25 -11 -31 -7 -7 -12 -16 -9 -20 2 -4 -1 -24 -7 -46 -14 -52
-17 -94 -7 -94 5 0 9 -9 9 -20 0 -11 5 -20 10 -20 6 0 10 -4 10 -10 0 -5 -8
-7 -17 -4 -15 5 -15 4 -3 -4 10 -8 19 -7 29 1 12 10 13 9 3 -10 -14 -25 -16
-45 -3 -24 13 21 40 22 36 2 -2 -9 -4 -20 -4 -24 -1 -5 -6 -5 -13 -1 -7 5 -8
3 -3 -5 5 -9 11 -9 17 -3 13 13 40 4 31 -11 -3 -6 -1 -7 6 -3 6 4 9 11 6 16
-3 5 -1 11 5 15 6 4 8 11 5 16 -3 5 1 6 10 2 11 -4 13 -8 5 -13 -12 -8 -3 -40
12 -40 6 0 4 7 -3 17 -13 15 -12 15 7 5 16 -8 24 -8 34 1 10 10 12 8 7 -11 -3
-12 -1 -20 4 -16 5 3 9 12 9 20 0 8 5 12 10 9 6 -3 10 -2 10 3 0 5 -13 9 -29
8 -16 0 -27 -5 -24 -10 4 -5 1 -6 -5 -2 -12 7 -5 36 9 36 5 0 9 5 9 11 0 5 -4
7 -10 4 -5 -3 -10 -1 -10 5 0 6 6 10 13 9 15 -3 50 12 58 24 4 5 9 5 13 -2 4
-6 2 -11 -3 -11 -6 0 -11 -5 -11 -11 0 -5 4 -7 10 -4 5 3 7 0 4 -9 -4 -11 0
-14 15 -11 12 3 30 7 41 9 12 3 18 1 15 -5 -4 -5 -10 -7 -14 -4 -5 2 -16 -2
-27 -9 -15 -12 -21 -12 -40 0 -22 15 -58 9 -48 -8 3 -5 11 -5 19 2 10 9 15 6
20 -11 4 -12 10 -18 14 -13 6 9 10 10 54 18 12 3 24 5 27 6 3 2 8 2 13 1 4 0
7 5 7 11 0 10 2 10 8 0 5 -7 19 -14 32 -17 12 -2 19 -1 16 3 -4 4 -13 7 -19 7
-7 0 -11 9 -9 20 2 11 4 26 4 33 2 15 4 15 31 1 21 -10 21 -10 3 5 -25 20 -29
43 -9 50 9 4 12 2 7 -7 -4 -7 -3 -9 2 -4 5 5 9 12 9 15 0 4 4 13 9 20 7 11 4
12 -12 3 -29 -15 -41 -13 -19 3 10 8 18 17 18 20 -1 3 0 8 0 11 5 19 3 31 -6
38 -6 5 -4 7 5 4 17 -4 21 -26 8 -43 -4 -6 -2 -11 7 -11 8 0 13 3 10 5 -3 3 0
11 6 18 7 8 7 14 -1 19 -21 13 -10 26 13 15 20 -10 20 -10 5 3 -20 16 -25 42
-6 31 7 -4 8 -3 4 4 -4 6 -13 9 -20 6 -14 -5 -15 23 -2 64 8 24 -14 39 -54 37
-53 -3 -66 -14 -80 -68 -8 -28 -13 -55 -12 -59 1 -5 -3 -8 -9 -8 -5 0 -8 -4
-5 -9 3 -5 -4 -23 -17 -42 -26 -39 -89 -79 -95 -61 -2 7 -8 12 -13 12 -6 0 -7
-4 -4 -10 3 -5 1 -10 -4 -10 -6 0 -11 3 -12 8 0 4 -2 15 -4 25 -3 15 -1 16 11
6 8 -6 17 -9 21 -5 3 3 1 6 -5 6 -7 0 -12 7 -12 17 0 14 2 14 21 -3 l21 -19
-18 32 c-13 21 -21 28 -26 20 -5 -8 -8 -9 -8 -1 0 6 7 17 15 24 10 9 12 16 5
25 -5 6 -6 16 -1 21 14 15 21 83 9 90 -13 8 -68 12 -90 7z m362 -123 c0 -5 -2
-10 -4 -10 -3 0 -8 5 -11 10 -3 6 -1 10 4 10 6 0 11 -4 11 -10z m-334 -235 c1
-8 -1 -17 -5 -19 -4 -3 -7 6 -7 19 0 25 8 25 12 0z"/>
<path d="M4476 2194 c-3 -8 -2 -12 4 -9 6 3 10 -1 10 -9 0 -8 4 -17 10 -21 5
-3 5 7 -1 25 -12 34 -15 36 -23 14z"/>
<path d="M2065 2120 c-7 -11 22 -26 32 -16 4 3 -2 6 -13 6 -16 0 -17 2 -4 10
9 6 10 10 3 10 -6 0 -15 -5 -18 -10z"/>
<path d="M3533 2085 c0 -8 6 -16 14 -19 11 -4 11 -1 3 14 -13 24 -17 25 -17 5z"/>
<path d="M1280 2080 c-8 -5 -10 -10 -5 -10 6 0 17 5 25 10 8 5 11 10 5 10 -5
0 -17 -5 -25 -10z"/>
<path d="M2065 2081 c-6 -11 13 -26 22 -17 4 3 1 6 -6 6 -7 0 -9 5 -6 10 3 6
4 10 1 10 -3 0 -7 -4 -11 -9z"/>
<path d="M1305 2060 c3 -5 8 -10 11 -10 2 0 4 5 4 10 0 6 -5 10 -11 10 -5 0
-7 -4 -4 -10z"/>
<path d="M3259 2053 c-13 -17 -13 -17 6 -3 11 8 22 16 24 17 2 2 0 3 -6 3 -6
0 -17 -8 -24 -17z"/>
<path d="M3745 2053 c-4 -10 -9 -26 -10 -35 -1 -14 2 -15 19 -6 12 6 22 9 23
7 1 -2 4 -1 7 4 3 4 3 5 -1 2 -11 -8 -32 16 -26 31 8 20 -3 17 -12 -3z"/>
<path d="M1275 2050 c-4 -6 -11 -8 -16 -5 -5 4 -10 1 -10 -4 -1 -6 -2 -15 -3
-20 0 -6 -11 -19 -23 -31 -27 -25 -29 -32 -6 -23 10 4 14 2 10 -4 -3 -5 1 -10
9 -10 10 0 11 4 4 11 -16 16 -12 30 6 16 8 -8 14 -9 13 -4 -1 5 0 12 1 17 4
12 7 26 9 38 0 5 5 8 9 5 5 -3 9 1 9 9 0 18 -3 19 -12 5z"/>
<path d="M790 2040 c0 -5 5 -10 11 -10 5 0 7 5 4 10 -3 6 -8 10 -11 10 -2 0
-4 -4 -4 -10z"/>
<path d="M4426 2014 c-6 -14 11 -30 21 -20 4 3 0 6 -7 6 -9 0 -8 4 4 13 16 12
16 14 3 14 -9 0 -18 -6 -21 -13z"/>
<path d="M2340 1986 c0 -2 8 -10 18 -17 15 -13 16 -12 3 4 -13 16 -21 21 -21
13z"/>
<path d="M2982 1967 c-12 -13 -19 -26 -16 -30 3 -3 -3 -12 -15 -19 -12 -7 -21
-16 -21 -21 0 -4 5 -5 10 -2 6 3 10 1 10 -5 0 -6 5 -8 11 -4 8 4 7 9 -2 15
-13 8 -5 13 14 10 4 0 6 2 6 7 -4 24 2 42 13 36 7 -5 8 -3 3 6 -6 10 -4 12 8
7 11 -4 14 -2 10 9 -7 18 -6 18 -31 -9z"/>
<path d="M3745 1960 c-3 -6 1 -7 9 -4 18 7 21 14 7 14 -6 0 -13 -4 -16 -10z"/>
<path d="M4426 1958 c3 -5 10 -6 15 -3 13 9 11 12 -6 12 -8 0 -12 -4 -9 -9z"/>
<path d="M1166 1922 c-7 -12 12 -38 21 -28 4 5 2 11 -5 13 -6 3 -10 9 -6 14 3
5 3 9 0 9 -3 0 -7 -4 -10 -8z"/>
<path d="M2395 1920 c-3 -5 -1 -10 4 -10 6 0 11 5 11 10 0 6 -2 10 -4 10 -3 0
-8 -4 -11 -10z"/>
<path d="M495 1909 c-4 -6 -5 -12 -2 -15 2 -3 7 2 10 11 7 17 1 20 -8 4z"/>
<path d="M3580 1904 c-11 -12 -15 -12 -23 -2 -6 10 -7 8 -3 -4 3 -10 1 -20 -5
-23 -13 -8 -1 -25 17 -25 11 0 13 6 8 22 -6 21 -5 21 10 9 9 -8 15 -20 12 -27
-3 -7 0 -16 7 -20 7 -4 9 -4 5 1 -4 4 -3 16 2 26 7 12 7 20 0 24 -6 4 -8 10
-5 15 10 16 -13 20 -25 4z m17 -1 c-4 -3 -1 -13 6 -22 11 -14 10 -14 -5 -2
-16 12 -16 31 -1 31 4 0 3 -3 0 -7z"/>
<path d="M2287 1896 c-4 -10 -1 -13 9 -9 15 6 19 23 5 23 -5 0 -11 -7 -14 -14z"/>
<path d="M3236 1893 c-6 -14 -5 -15 5 -6 7 7 10 15 7 18 -3 3 -9 -2 -12 -12z"/>
<path d="M3417 1896 c-4 -9 -3 -15 1 -15 20 3 25 -2 12 -12 -13 -9 -13 -10 2
-6 9 4 19 -1 23 -10 4 -12 9 -13 16 -6 12 12 3 36 -11 28 -5 -3 -15 4 -23 15
-12 18 -15 18 -20 6z"/>
<path d="M2106 1892 c-2 -4 4 -8 14 -8 10 0 16 4 14 8 -3 4 -9 8 -14 8 -5 0
-11 -4 -14 -8z"/>
<path d="M391 1863 c-6 -10 -11 -12 -11 -5 0 17 -14 15 -41 -6 -17 -15 -19
-21 -9 -27 9 -6 11 -4 5 5 -6 10 -4 12 8 7 9 -3 19 -2 22 4 4 5 10 7 15 4 5
-3 11 -1 15 5 4 6 11 8 16 5 5 -3 6 1 3 9 -8 20 -11 20 -23 -1z"/>
<path d="M815 1861 c-3 -5 -2 -12 3 -15 5 -3 9 1 9 9 0 17 -3 19 -12 6z"/>
<path d="M1950 1860 c0 -5 5 -10 11 -10 5 0 7 5 4 10 -3 6 -8 10 -11 10 -2 0
-4 -4 -4 -10z"/>
<path d="M3497 1852 c1 -8 3 -16 3 -18 0 -2 5 -4 11 -4 5 0 7 5 4 10 -3 6 -1
10 4 10 6 0 11 -5 11 -12 0 -6 2 -9 5 -6 3 3 3 13 -1 22 -5 12 -10 14 -19 6
-7 -6 -15 -7 -17 -3 -3 4 -3 2 -1 -5z"/>
<path d="M3650 1859 c0 -12 29 -18 35 -8 4 5 11 7 16 4 5 -4 9 -2 9 3 0 5 -13
9 -30 8 -16 0 -30 -4 -30 -7z"/>
<path d="M4376 1862 c-3 -5 1 -9 9 -9 8 0 12 4 9 9 -3 4 -7 8 -9 8 -2 0 -6 -4
-9 -8z"/>
<path d="M2226 1853 c-3 -3 0 -13 6 -23 10 -16 13 -16 26 -3 8 7 11 17 8 20
-9 9 -33 12 -40 6z m34 -9 c0 -8 -19 -13 -24 -6 -3 5 1 9 9 9 8 0 15 -2 15 -3z"/>
<path d="M2843 1832 c-8 -14 -8 -19 1 -19 7 0 13 9 13 19 1 10 1 18 0 18 -1 0
-7 -8 -14 -18z"/>
<path d="M3895 1840 c-3 -5 1 -10 9 -10 10 0 13 -6 10 -15 -4 -8 -4 -15 -1
-15 3 0 7 6 10 14 7 18 -18 42 -28 26z"/>
<path d="M3550 1837 c0 -2 6 -10 14 -16 11 -9 16 -9 22 1 4 7 4 10 -1 6 -4 -4
-14 -3 -22 3 -7 6 -13 9 -13 6z"/>
<path d="M4326 1831 c-6 -8 5 -20 31 -35 6 -3 15 -2 18 4 4 6 3 10 -2 9 -19
-3 -34 2 -28 10 3 5 1 12 -4 15 -5 4 -12 2 -15 -3z"/>
<path d="M375 1820 c3 -5 8 -10 11 -10 2 0 4 5 4 10 0 6 -5 10 -11 10 -5 0 -7
-4 -4 -10z"/>
<path d="M1640 1820 c-9 -6 -10 -10 -3 -10 6 0 15 5 18 10 8 12 4 12 -15 0z"/>
<path d="M2196 1822 c-2 -4 4 -8 14 -8 10 0 16 4 14 8 -3 4 -9 8 -14 8 -5 0
-11 -4 -14 -8z"/>
<path d="M2540 1818 c0 -11 38 -10 44 1 3 5 -5 8 -19 7 -14 0 -25 -4 -25 -8z"/>
<path d="M2757 1816 c-3 -8 0 -17 7 -19 10 -4 12 1 9 14 -6 23 -9 24 -16 5z"/>
<path d="M1036 1774 c-4 -9 -10 -14 -13 -10 -4 4 -13 -4 -20 -16 -10 -19 -12
-20 -13 -5 0 16 -2 16 -25 1 -14 -9 -25 -12 -25 -6 0 6 -10 16 -22 22 -21 10
-21 10 -5 -3 9 -8 17 -17 17 -21 0 -9 -24 -3 -32 9 -4 6 -8 2 -8 -8 0 -11 5
-17 13 -14 6 2 21 -4 32 -14 15 -13 24 -15 35 -8 13 9 12 10 -2 5 -10 -3 -20
-1 -23 4 -4 6 -1 11 4 11 6 1 17 2 24 3 6 1 15 -3 19 -9 5 -6 8 -5 8 3 0 7 4
10 10 7 6 -4 7 1 3 12 -6 15 -4 16 9 5 13 -11 16 -10 14 5 -1 13 5 17 19 15
11 -2 16 1 10 5 -5 5 -13 12 -16 16 -4 4 -9 0 -13 -9z"/>
<path d="M4330 1759 c0 -5 5 -7 10 -4 6 3 10 8 10 11 0 2 -4 4 -10 4 -5 0 -10
-5 -10 -11z"/>
<path d="M4285 1749 c-4 -6 -5 -12 -2 -15 2 -3 7 2 10 11 7 17 1 20 -8 4z"/>
<path d="M4255 1719 c-4 -6 -5 -12 -2 -15 2 -3 7 2 10 11 7 17 1 20 -8 4z"/>
<path d="M4131 1704 c0 -11 3 -14 6 -6 3 7 2 16 -1 19 -3 4 -6 -2 -5 -13z"/>
<path d="M894 1702 c4 -3 14 -7 22 -8 9 -1 13 0 10 4 -4 3 -14 7 -22 8 -9 1
-13 0 -10 -4z"/>
<path d="M4080 1693 c7 -16 7 -23 0 -23 -5 0 -10 6 -11 13 0 6 -5 2 -11 -10
-6 -13 -15 -23 -20 -23 -5 0 -7 4 -3 9 3 5 1 13 -5 16 -6 4 -9 1 -8 -6 2 -6
-3 -14 -11 -17 -10 -3 -11 0 -5 9 7 12 5 12 -9 1 -9 -8 -20 -11 -25 -8 -12 7
-35 -18 -25 -27 3 -4 2 -12 -4 -19 -14 -19 -10 -41 7 -45 12 -4 13 -3 1 5 -11
8 -10 12 8 21 11 7 21 9 21 6 0 -3 11 2 24 11 14 8 23 21 20 28 -5 14 34 15
56 2 13 -9 13 -8 1 7 -16 20 -8 22 21 6 13 -7 18 -7 14 -1 -4 6 2 15 11 21 10
6 13 11 6 11 -6 0 -14 8 -17 18 -3 10 -4 8 -3 -7 1 -13 -4 -26 -12 -29 -8 -2
-11 0 -8 5 4 6 0 19 -9 29 -14 18 -15 18 -4 -3z m-71 -57 c11 -7 10 -11 -5
-19 -11 -6 -21 -10 -24 -10 -3 1 -14 -4 -25 -9 -20 -11 -20 -11 -1 11 12 13
14 21 7 21 -7 0 -10 4 -7 8 6 11 36 9 55 -2z"/>
<path d="M3985 1629 c-4 -6 -5 -12 -2 -15 2 -3 7 2 10 11 7 17 1 20 -8 4z"/>
<path d="M4056 1613 c-6 -14 -5 -15 5 -6 7 7 10 15 7 18 -3 3 -9 -2 -12 -12z"/>
<path d="M3592 1579 c9 -9 15 -18 13 -20 -2 -2 8 -5 23 -6 l26 -1 -24 18 c-14
10 -27 17 -29 14 -2 -2 -9 0 -16 4 -6 4 -3 0 7 -9z"/>
<path d="M3577 1549 c4 -13 8 -18 11 -10 2 7 -1 18 -6 23 -8 8 -9 4 -5 -13z"/>
<path d="M3620 1540 c0 -5 6 -10 14 -10 8 0 17 -6 19 -12 4 -10 6 -10 6 -1 1
7 -8 17 -19 23 -14 7 -20 7 -20 0z"/>
</g>
</svg>
